# Blender 4.2.2 LTS
# www.blender.org
mtllib Apricot-0.mtl
o Untitled
v -0.267981 -0.305263 0.150437
v -0.267981 -0.305263 0.050438
v -0.267981 -0.305263 -0.049562
v -0.267981 -0.305263 -0.149563
v -0.267981 -0.205263 0.250438
v -0.267981 -0.205263 0.150437
v -0.267981 -0.205263 -0.149563
v -0.267981 -0.205263 -0.249562
v -0.267981 0.094737 0.250438
v -0.267981 0.094737 0.150437
v -0.267981 0.094737 -0.149563
v -0.267981 0.094737 -0.249562
v -0.267981 0.194737 0.150437
v -0.267981 0.194737 0.050438
v -0.267981 0.194737 -0.049562
v -0.267981 0.194737 -0.149563
v -0.167981 -0.305263 0.250438
v -0.167981 -0.305263 0.150437
v -0.167981 -0.305263 -0.149563
v -0.167981 -0.305263 -0.249562
v -0.167981 -0.205263 0.250438
v -0.167981 -0.205263 0.150437
v -0.167981 -0.205263 -0.149563
v -0.167981 -0.205263 -0.249562
v -0.167981 0.094737 0.250438
v -0.167981 0.094737 0.150437
v -0.167981 0.094737 -0.149563
v -0.167981 0.094737 -0.249562
v -0.167981 0.194737 0.250438
v -0.167981 0.194737 0.150437
v -0.167981 0.194737 -0.149563
v -0.167981 0.194737 -0.249562
v 0.032020 0.194737 0.050438
v 0.032020 0.194737 -0.049562
v 0.032020 0.294737 0.050438
v 0.032020 0.294737 -0.049562
v 0.132020 0.194737 -0.049562
v 0.132020 0.194737 -0.149563
v 0.132020 0.294737 -0.049562
v 0.132020 0.294737 -0.149563
v 0.132020 -0.305263 0.250438
v 0.132020 -0.305263 0.150437
v 0.132020 -0.305263 -0.149563
v 0.132020 -0.305263 -0.249562
v 0.132020 -0.205263 0.250438
v 0.132020 -0.205263 0.150437
v 0.132020 -0.205263 -0.149563
v 0.132020 -0.205263 -0.249562
v 0.132020 0.094737 0.250438
v 0.132020 0.094737 0.150437
v 0.132020 0.094737 -0.149563
v 0.132020 0.094737 -0.249562
v 0.132020 0.194737 0.250438
v 0.132020 0.194737 0.150437
v 0.132020 0.194737 -0.149563
v 0.132020 0.194737 -0.249562
v 0.232019 -0.305263 0.150437
v 0.232019 -0.305263 -0.149563
v 0.232019 -0.205263 0.250438
v 0.232019 -0.205263 0.150437
v 0.232019 -0.205263 -0.149563
v 0.232019 -0.205263 -0.249562
v 0.232019 -0.005263 0.250438
v 0.232019 -0.005263 0.150437
v 0.232019 0.094737 0.250438
v 0.232019 0.094737 0.150437
v 0.232019 0.094737 0.050438
v 0.232019 0.094737 -0.049562
v 0.232019 0.094737 -0.149563
v 0.232019 0.094737 -0.249562
v 0.232019 0.194737 0.150437
v 0.232019 0.194737 0.050438
v 0.232019 0.194737 -0.049562
v 0.232019 0.194737 -0.149563
v 0.232019 0.294737 0.050438
v 0.232019 0.294737 -0.149563
v -0.267981 -0.205263 0.250438
v -0.267981 0.094737 0.250438
v -0.167981 -0.305263 0.250438
v -0.167981 -0.205263 0.250438
v -0.167981 0.094737 0.250438
v -0.167981 0.194737 0.250438
v 0.032020 0.094737 0.250438
v 0.032020 0.194737 0.250438
v 0.132020 -0.305263 0.250438
v 0.132020 -0.205263 0.250438
v 0.132020 -0.005263 0.250438
v 0.132020 0.094737 0.250438
v 0.132020 0.194737 0.250438
v 0.232019 -0.205263 0.250438
v 0.232019 -0.005263 0.250438
v 0.232019 0.094737 0.250438
v -0.267981 -0.305263 0.150437
v -0.267981 -0.205263 0.150437
v -0.267981 0.094737 0.150437
v -0.267981 0.194737 0.150437
v -0.167981 -0.305263 0.150437
v -0.167981 -0.205263 0.150437
v -0.167981 0.094737 0.150437
v -0.167981 0.194737 0.150437
v 0.132020 -0.305263 0.150437
v 0.132020 -0.205263 0.150437
v 0.132020 0.094737 0.150437
v 0.132020 0.194737 0.150437
v 0.232019 -0.305263 0.150437
v 0.232019 -0.205263 0.150437
v 0.232019 0.094737 0.150437
v 0.232019 0.194737 0.150437
v 0.032020 0.194737 0.050438
v 0.032020 0.294737 0.050438
v 0.132020 0.194737 0.050438
v 0.232019 0.194737 0.050438
v 0.232019 0.294737 0.050438
v 0.032020 0.194737 -0.049562
v 0.032020 0.294737 -0.049562
v 0.132020 0.194737 -0.049562
v 0.132020 0.294737 -0.049562
v -0.267981 -0.305263 -0.149563
v -0.267981 -0.205263 -0.149563
v -0.267981 0.094737 -0.149563
v -0.267981 0.194737 -0.149563
v -0.167981 -0.305263 -0.149563
v -0.167981 -0.205263 -0.149563
v -0.167981 0.094737 -0.149563
v -0.167981 0.194737 -0.149563
v 0.132020 -0.305263 -0.149563
v 0.132020 -0.205263 -0.149563
v 0.132020 0.094737 -0.149563
v 0.132020 0.194737 -0.149563
v 0.132020 0.294737 -0.149563
v 0.232019 -0.305263 -0.149563
v 0.232019 -0.205263 -0.149563
v 0.232019 0.094737 -0.149563
v 0.232019 0.194737 -0.149563
v 0.232019 0.294737 -0.149563
v -0.267981 -0.205263 -0.249562
v -0.267981 0.094737 -0.249562
v -0.167981 -0.305263 -0.249562
v -0.167981 -0.205263 -0.249562
v -0.167981 0.094737 -0.249562
v -0.167981 0.194737 -0.249562
v -0.067980 0.094737 -0.249562
v -0.067980 0.194737 -0.249562
v 0.132020 -0.305263 -0.249562
v 0.132020 -0.205263 -0.249562
v 0.132020 0.094737 -0.249562
v 0.132020 0.194737 -0.249562
v 0.232019 -0.205263 -0.249562
v 0.232019 0.094737 -0.249562
v -0.167981 -0.305263 0.250438
v 0.132020 -0.305263 0.250438
v -0.267981 -0.305263 0.150437
v -0.167981 -0.305263 0.150437
v 0.132020 -0.305263 0.150437
v 0.232019 -0.305263 0.150437
v -0.267981 -0.305263 0.050438
v 0.032020 -0.305263 0.050438
v -0.267981 -0.305263 -0.049562
v 0.032020 -0.305263 -0.049562
v -0.267981 -0.305263 -0.149563
v -0.167981 -0.305263 -0.149563
v 0.132020 -0.305263 -0.149563
v 0.232019 -0.305263 -0.149563
v -0.167981 -0.305263 -0.249562
v 0.132020 -0.305263 -0.249562
v -0.267981 -0.205263 0.250438
v -0.167981 -0.205263 0.250438
v 0.132020 -0.205263 0.250438
v 0.232019 -0.205263 0.250438
v -0.267981 -0.205263 0.150437
v -0.167981 -0.205263 0.150437
v 0.132020 -0.205263 0.150437
v 0.232019 -0.205263 0.150437
v -0.267981 -0.205263 -0.149563
v -0.167981 -0.205263 -0.149563
v 0.132020 -0.205263 -0.149563
v 0.232019 -0.205263 -0.149563
v -0.267981 -0.205263 -0.249562
v -0.167981 -0.205263 -0.249562
v 0.132020 -0.205263 -0.249562
v 0.232019 -0.205263 -0.249562
v -0.267981 0.094737 0.250438
v -0.167981 0.094737 0.250438
v 0.132020 0.094737 0.250438
v 0.232019 0.094737 0.250438
v -0.267981 0.094737 0.150437
v -0.167981 0.094737 0.150437
v 0.132020 0.094737 0.150437
v 0.232019 0.094737 0.150437
v -0.267981 0.094737 -0.149563
v -0.167981 0.094737 -0.149563
v 0.132020 0.094737 -0.149563
v 0.232019 0.094737 -0.149563
v -0.267981 0.094737 -0.249562
v -0.167981 0.094737 -0.249562
v 0.132020 0.094737 -0.249562
v 0.232019 0.094737 -0.249562
v -0.167981 0.194737 0.250438
v 0.032020 0.194737 0.250438
v 0.132020 0.194737 0.250438
v -0.267981 0.194737 0.150437
v -0.167981 0.194737 0.150437
v 0.032020 0.194737 0.150437
v 0.132020 0.194737 0.150437
v 0.232019 0.194737 0.150437
v -0.267981 0.194737 0.050438
v -0.067980 0.194737 0.050438
v 0.032020 0.194737 0.050438
v 0.132020 0.194737 0.050438
v 0.232019 0.194737 0.050438
v -0.267981 0.194737 -0.049562
v -0.067980 0.194737 -0.049562
v 0.032020 0.194737 -0.049562
v 0.132020 0.194737 -0.049562
v -0.267981 0.194737 -0.149563
v -0.167981 0.194737 -0.149563
v -0.067980 0.194737 -0.149563
v 0.032020 0.194737 -0.149563
v 0.132020 0.194737 -0.149563
v -0.167981 0.194737 -0.249562
v -0.067980 0.194737 -0.249562
v 0.132020 0.194737 -0.249562
v 0.032020 0.294737 0.050438
v 0.232019 0.294737 0.050438
v 0.032020 0.294737 -0.049562
v 0.132020 0.294737 -0.049562
v 0.132020 0.294737 -0.149563
v 0.232019 0.294737 -0.149563
vn -1.0000 -0.0000 -0.0000
vn 1.0000 -0.0000 -0.0000
vn -0.0000 -0.0000 1.0000
vn -0.0000 -0.0000 -1.0000
vn -0.0000 -1.0000 -0.0000
vn -0.0000 1.0000 -0.0000
vt 0.099609 0.500000
vt 0.345703 0.500000
vt 0.017578 0.500000
vt 0.318359 0.500000
s 0
usemtl palette.003
f 6/1/1 2/1/1 1/1/1
f 7/1/1 4/1/1 3/1/1
f 9/1/1 6/1/1 5/1/1
f 10/1/1 2/1/1 6/1/1
f 10/1/1 6/1/1 9/1/1
f 11/1/1 8/1/1 7/1/1
f 11/1/1 7/1/1 3/1/1
f 12/1/1 8/1/1 11/1/1
f 13/1/1 2/1/1 10/1/1
f 14/2/1 3/2/1 2/2/1
f 14/1/1 2/1/1 13/1/1
f 15/1/1 11/1/1 3/1/1
f 15/2/1 3/2/1 14/2/1
f 16/1/1 11/1/1 15/1/1
f 21/1/1 18/1/1 17/1/1
f 22/1/1 18/1/1 21/1/1
f 23/1/1 20/1/1 19/1/1
f 24/1/1 20/1/1 23/1/1
f 29/1/1 26/1/1 25/1/1
f 30/1/1 26/1/1 29/1/1
f 31/1/1 28/1/1 27/1/1
f 32/1/1 28/1/1 31/1/1
f 35/3/1 34/3/1 33/3/1
f 36/3/1 34/3/1 35/3/1
f 39/3/1 38/3/1 37/3/1
f 40/3/1 38/3/1 39/3/1
f 41/1/2 42/1/2 45/1/2
f 45/1/2 42/1/2 46/1/2
f 43/1/2 44/1/2 47/1/2
f 47/1/2 44/1/2 48/1/2
f 49/2/2 50/2/2 53/2/2
f 53/2/2 50/2/2 54/2/2
f 51/2/2 52/2/2 55/2/2
f 55/2/2 52/2/2 56/2/2
f 57/1/2 58/1/2 60/1/2
f 60/1/2 58/1/2 61/1/2
f 59/1/2 60/1/2 63/1/2
f 61/1/2 62/1/2 63/1/2
f 60/1/2 61/1/2 63/1/2
f 63/1/2 62/1/2 64/1/2
f 63/2/2 64/2/2 65/2/2
f 64/1/2 62/1/2 66/1/2
f 65/2/2 64/2/2 66/2/2
f 66/1/2 62/1/2 67/1/2
f 67/1/2 62/1/2 68/1/2
f 68/1/2 62/1/2 69/1/2
f 69/1/2 62/1/2 70/1/2
f 66/2/2 67/2/2 71/2/2
f 67/1/2 68/1/2 72/1/2
f 71/2/2 67/2/2 72/2/2
f 68/2/2 69/2/2 73/2/2
f 72/1/2 68/1/2 73/1/2
f 73/2/2 69/2/2 74/2/2
f 72/3/2 73/3/2 75/3/2
f 73/3/2 74/3/2 75/3/2
f 75/3/2 74/3/2 76/3/2
f 80/1/3 78/1/3 77/1/3
f 81/1/3 78/1/3 80/1/3
f 83/1/3 80/1/3 79/1/3
f 83/1/3 82/1/3 81/1/3
f 83/1/3 81/1/3 80/1/3
f 84/1/3 82/1/3 83/1/3
f 85/1/3 83/1/3 79/1/3
f 86/1/3 83/1/3 85/1/3
f 87/1/3 83/1/3 86/1/3
f 88/2/3 84/2/3 83/2/3
f 88/1/3 83/1/3 87/1/3
f 89/2/3 84/2/3 88/2/3
f 90/1/3 87/1/3 86/1/3
f 91/2/3 88/2/3 87/2/3
f 91/1/3 87/1/3 90/1/3
f 92/2/3 88/2/3 91/2/3
f 97/1/3 94/1/3 93/1/3
f 98/1/3 94/1/3 97/1/3
f 99/1/3 96/1/3 95/1/3
f 100/1/3 96/1/3 99/1/3
f 105/1/3 102/1/3 101/1/3
f 106/1/3 102/1/3 105/1/3
f 107/2/3 104/2/3 103/2/3
f 108/2/3 104/2/3 107/2/3
f 111/3/3 110/3/3 109/3/3
f 112/3/3 110/3/3 111/3/3
f 113/3/3 110/3/3 112/3/3
f 114/3/4 115/3/4 116/3/4
f 116/3/4 115/3/4 117/3/4
f 118/1/4 119/1/4 122/1/4
f 122/1/4 119/1/4 123/1/4
f 120/1/4 121/1/4 124/1/4
f 124/1/4 121/1/4 125/1/4
f 126/1/4 127/1/4 131/1/4
f 131/1/4 127/1/4 132/1/4
f 128/2/4 129/2/4 133/2/4
f 129/3/4 130/3/4 134/3/4
f 133/2/4 129/2/4 134/2/4
f 134/3/4 130/3/4 135/3/4
f 136/1/4 137/1/4 139/1/4
f 139/1/4 137/1/4 140/1/4
f 138/1/4 139/1/4 142/1/4
f 140/1/4 141/1/4 142/1/4
f 139/1/4 140/1/4 142/1/4
f 142/1/4 141/1/4 143/1/4
f 138/1/4 142/1/4 144/1/4
f 144/1/4 142/1/4 145/1/4
f 142/2/4 143/2/4 146/2/4
f 145/1/4 142/1/4 146/1/4
f 146/2/4 143/2/4 147/2/4
f 145/1/4 146/1/4 148/1/4
f 148/1/4 146/1/4 149/1/4
f 153/1/5 151/1/5 150/1/5
f 154/1/5 151/1/5 153/1/5
f 156/1/5 153/1/5 152/1/5
f 156/1/5 155/1/5 154/1/5
f 156/1/5 154/1/5 153/1/5
f 157/1/5 155/1/5 156/1/5
f 158/2/5 157/2/5 156/2/5
f 159/1/5 155/1/5 157/1/5
f 159/2/5 157/2/5 158/2/5
f 160/1/5 159/1/5 158/1/5
f 161/1/5 159/1/5 160/1/5
f 162/1/5 155/1/5 159/1/5
f 162/1/5 159/1/5 161/1/5
f 163/1/5 155/1/5 162/1/5
f 164/1/5 162/1/5 161/1/5
f 165/1/5 162/1/5 164/1/5
f 170/1/5 167/1/5 166/1/5
f 171/1/5 167/1/5 170/1/5
f 172/1/5 169/1/5 168/1/5
f 173/1/5 169/1/5 172/1/5
f 178/1/5 175/1/5 174/1/5
f 179/1/5 175/1/5 178/1/5
f 180/1/5 177/1/5 176/1/5
f 181/1/5 177/1/5 180/1/5
f 182/1/6 183/1/6 186/1/6
f 186/1/6 183/1/6 187/1/6
f 184/2/6 185/2/6 188/2/6
f 188/2/6 185/2/6 189/2/6
f 190/1/6 191/1/6 194/1/6
f 194/1/6 191/1/6 195/1/6
f 192/1/6 193/1/6 196/1/6
f 196/1/6 193/1/6 197/1/6
f 198/1/6 199/1/6 202/1/6
f 199/2/6 200/2/6 203/2/6
f 202/1/6 199/1/6 203/1/6
f 203/2/6 200/2/6 204/2/6
f 201/1/6 202/1/6 206/1/6
f 202/1/6 203/1/6 206/1/6
f 203/1/6 204/1/6 206/1/6
f 206/1/6 204/1/6 207/1/6
f 207/1/6 204/1/6 208/1/6
f 204/2/6 205/2/6 209/2/6
f 208/1/6 204/1/6 209/1/6
f 209/2/6 205/2/6 210/2/6
f 206/2/6 207/2/6 211/2/6
f 207/4/6 208/4/6 212/4/6
f 211/2/6 207/2/6 212/2/6
f 212/4/6 208/4/6 213/4/6
f 211/1/6 212/1/6 215/1/6
f 212/1/6 213/1/6 215/1/6
f 215/1/6 213/1/6 216/1/6
f 216/1/6 213/1/6 217/1/6
f 213/2/6 214/2/6 218/2/6
f 217/1/6 213/1/6 218/1/6
f 218/2/6 214/2/6 219/2/6
f 216/1/6 217/1/6 220/1/6
f 218/2/6 219/2/6 221/2/6
f 220/1/6 217/1/6 221/1/6
f 217/2/6 218/2/6 221/2/6
f 221/2/6 219/2/6 222/2/6
f 223/3/6 224/3/6 225/3/6
f 225/3/6 224/3/6 226/3/6
f 226/3/6 224/3/6 227/3/6
f 227/3/6 224/3/6 228/3/6
