# Blender 4.2.2 LTS
# www.blender.org
mtllib Bean-0.mtl
o Untitled
v -0.600000 -0.017647 0.050000
v -0.600000 -0.017647 -0.050000
v -0.600000 0.082353 0.050000
v -0.600000 0.082353 -0.050000
v -0.500000 -0.117647 0.050000
v -0.500000 -0.117647 -0.050000
v -0.500000 -0.017647 0.050000
v -0.500000 -0.017647 -0.050000
v 0.500000 -0.017647 0.050000
v 0.500000 -0.017647 -0.050000
v 0.500000 0.082353 0.050000
v 0.500000 0.082353 -0.050000
v -0.500000 -0.017647 0.050000
v -0.500000 -0.017647 -0.050000
v -0.500000 0.082353 0.050000
v -0.500000 0.082353 -0.050000
v 0.500000 -0.117647 0.050000
v 0.500000 -0.117647 -0.050000
v 0.500000 -0.017647 0.050000
v 0.500000 -0.017647 -0.050000
v 0.600000 -0.017647 0.050000
v 0.600000 -0.017647 -0.050000
v 0.600000 0.082353 0.050000
v 0.600000 0.082353 -0.050000
v -0.600000 -0.017647 0.050000
v -0.600000 0.082353 0.050000
v -0.500000 -0.117647 0.050000
v -0.500000 -0.017647 0.050000
v -0.500000 0.082353 0.050000
v 0.500000 -0.117647 0.050000
v 0.500000 -0.017647 0.050000
v 0.500000 0.082353 0.050000
v 0.600000 -0.017647 0.050000
v 0.600000 0.082353 0.050000
v -0.600000 -0.017647 -0.050000
v -0.600000 0.082353 -0.050000
v -0.500000 -0.117647 -0.050000
v -0.500000 -0.017647 -0.050000
v -0.500000 0.082353 -0.050000
v 0.500000 -0.117647 -0.050000
v 0.500000 -0.017647 -0.050000
v 0.500000 0.082353 -0.050000
v 0.600000 -0.017647 -0.050000
v 0.600000 0.082353 -0.050000
v -0.500000 -0.117647 0.050000
v 0.500000 -0.117647 0.050000
v -0.500000 -0.117647 -0.050000
v 0.500000 -0.117647 -0.050000
v -0.600000 -0.017647 0.050000
v -0.500000 -0.017647 0.050000
v 0.500000 -0.017647 0.050000
v 0.600000 -0.017647 0.050000
v -0.600000 -0.017647 -0.050000
v -0.500000 -0.017647 -0.050000
v 0.500000 -0.017647 -0.050000
v 0.600000 -0.017647 -0.050000
v -0.500000 -0.017647 0.050000
v 0.500000 -0.017647 0.050000
v -0.500000 -0.017647 -0.050000
v 0.500000 -0.017647 -0.050000
v -0.600000 0.082353 0.050000
v -0.500000 0.082353 0.050000
v 0.500000 0.082353 0.050000
v 0.600000 0.082353 0.050000
v -0.600000 0.082353 -0.050000
v -0.500000 0.082353 -0.050000
v 0.500000 0.082353 -0.050000
v 0.600000 0.082353 -0.050000
vn -1.0000 -0.0000 -0.0000
vn 1.0000 -0.0000 -0.0000
vn -0.0000 -0.0000 1.0000
vn -0.0000 -0.0000 -1.0000
vn -0.0000 -1.0000 -0.0000
vn -0.0000 1.0000 -0.0000
vt 0.158203 0.500000
vt 0.162109 0.500000
vt 0.166016 0.500000
s 0
usemtl palette.007
f 3/1/1 2/1/1 1/1/1
f 4/1/1 2/1/1 3/1/1
f 7/2/1 6/2/1 5/2/1
f 8/2/1 6/2/1 7/2/1
f 11/3/1 10/3/1 9/3/1
f 12/3/1 10/3/1 11/3/1
f 13/1/2 14/1/2 15/1/2
f 15/1/2 14/1/2 16/1/2
f 17/2/2 18/2/2 19/2/2
f 19/2/2 18/2/2 20/2/2
f 21/3/2 22/3/2 23/3/2
f 23/3/2 22/3/2 24/3/2
f 28/1/3 26/1/3 25/1/3
f 29/1/3 26/1/3 28/1/3
f 30/2/3 28/2/3 27/2/3
f 31/2/3 28/2/3 30/2/3
f 33/3/3 32/3/3 31/3/3
f 34/3/3 32/3/3 33/3/3
f 35/1/4 36/1/4 38/1/4
f 38/1/4 36/1/4 39/1/4
f 37/2/4 38/2/4 40/2/4
f 40/2/4 38/2/4 41/2/4
f 41/3/4 42/3/4 43/3/4
f 43/3/4 42/3/4 44/3/4
f 47/2/5 46/2/5 45/2/5
f 48/2/5 46/2/5 47/2/5
f 53/1/5 50/1/5 49/1/5
f 54/1/5 50/1/5 53/1/5
f 55/3/5 52/3/5 51/3/5
f 56/3/5 52/3/5 55/3/5
f 57/2/6 58/2/6 59/2/6
f 59/2/6 58/2/6 60/2/6
f 61/1/6 62/1/6 65/1/6
f 65/1/6 62/1/6 66/1/6
f 63/3/6 64/3/6 67/3/6
f 67/3/6 64/3/6 68/3/6
