# Blender 4.2.2 LTS
# www.blender.org
mtllib Cherry-0.mtl
o Untitled
v -0.359196 -0.368965 0.174720
v -0.359196 -0.368965 -0.025280
v -0.359196 -0.168965 0.174720
v -0.359196 -0.168965 -0.025280
v -0.259196 -0.168965 0.074719
v -0.259196 -0.168965 -0.025280
v -0.259196 0.031035 0.074719
v -0.259196 0.031035 -0.025280
v -0.159196 0.031035 0.074719
v -0.159196 0.031035 -0.025280
v -0.159196 0.131035 0.074719
v -0.159196 0.131035 -0.025280
v -0.059196 0.131035 0.074719
v -0.059196 0.131035 -0.025280
v -0.059196 0.231035 0.074719
v -0.059196 0.231035 -0.025280
v 0.040804 -0.368965 -0.025280
v 0.040804 -0.368965 -0.225280
v 0.040804 -0.168965 -0.025280
v 0.040804 -0.168965 -0.225280
v 0.040804 0.231035 0.074719
v 0.040804 0.231035 -0.025280
v 0.040804 0.331035 0.074719
v 0.040804 0.331035 -0.025280
v 0.140804 -0.168965 -0.025280
v 0.140804 -0.168965 -0.125280
v 0.140804 0.031035 0.074719
v 0.140804 0.031035 -0.025280
v 0.140804 0.031035 -0.125280
v 0.140804 0.231035 0.074719
v 0.140804 0.231035 -0.025280
v -0.159196 -0.368965 0.174720
v -0.159196 -0.368965 -0.025280
v -0.159196 -0.168965 0.174720
v -0.159196 -0.168965 0.074719
v -0.159196 -0.168965 -0.025280
v -0.159196 0.031035 0.074719
v -0.159196 0.031035 -0.025280
v -0.059196 0.031035 0.074719
v -0.059196 0.031035 -0.025280
v -0.059196 0.131035 0.074719
v -0.059196 0.131035 -0.025280
v 0.040804 0.131035 0.074719
v 0.040804 0.131035 -0.025280
v 0.040804 0.231035 0.074719
v 0.040804 0.231035 -0.025280
v 0.140804 0.231035 0.074719
v 0.140804 0.231035 -0.025280
v 0.140804 0.331035 0.074719
v 0.140804 0.331035 -0.025280
v 0.240804 -0.368965 -0.025280
v 0.240804 -0.368965 -0.225280
v 0.240804 -0.168965 -0.025280
v 0.240804 -0.168965 -0.125280
v 0.240804 -0.168965 -0.225280
v 0.240804 0.031035 0.074719
v 0.240804 0.031035 -0.025280
v 0.240804 0.031035 -0.125280
v 0.240804 0.231035 0.074719
v 0.240804 0.231035 -0.025280
v -0.359196 -0.368965 0.174720
v -0.359196 -0.168965 0.174720
v -0.159196 -0.368965 0.174720
v -0.159196 -0.168965 0.174720
v -0.259196 -0.168965 0.074719
v -0.259196 0.031035 0.074719
v -0.159196 -0.168965 0.074719
v -0.159196 0.031035 0.074719
v -0.159196 0.131035 0.074719
v -0.059196 0.031035 0.074719
v -0.059196 0.131035 0.074719
v -0.059196 0.231035 0.074719
v 0.040804 0.131035 0.074719
v 0.040804 0.231035 0.074719
v 0.040804 0.331035 0.074719
v 0.140804 0.031035 0.074719
v 0.140804 0.231035 0.074719
v 0.140804 0.331035 0.074719
v 0.240804 0.031035 0.074719
v 0.240804 0.231035 0.074719
v 0.040804 -0.368965 -0.025280
v 0.040804 -0.168965 -0.025280
v 0.140804 -0.168965 -0.025280
v 0.140804 0.031035 -0.025280
v 0.240804 -0.368965 -0.025280
v 0.240804 -0.168965 -0.025280
v 0.240804 0.031035 -0.025280
v -0.359196 -0.368965 -0.025280
v -0.359196 -0.168965 -0.025280
v -0.259196 -0.168965 -0.025280
v -0.259196 0.031035 -0.025280
v -0.159196 -0.368965 -0.025280
v -0.159196 -0.168965 -0.025280
v -0.159196 0.031035 -0.025280
v -0.159196 0.131035 -0.025280
v -0.059196 0.031035 -0.025280
v -0.059196 0.131035 -0.025280
v -0.059196 0.231035 -0.025280
v 0.040804 0.131035 -0.025280
v 0.040804 0.231035 -0.025280
v 0.040804 0.331035 -0.025280
v 0.140804 0.031035 -0.025280
v 0.140804 0.231035 -0.025280
v 0.140804 0.331035 -0.025280
v 0.240804 0.031035 -0.025280
v 0.240804 0.231035 -0.025280
v 0.140804 -0.168965 -0.125280
v 0.140804 0.031035 -0.125280
v 0.240804 -0.168965 -0.125280
v 0.240804 0.031035 -0.125280
v 0.040804 -0.368965 -0.225280
v 0.040804 -0.168965 -0.225280
v 0.240804 -0.368965 -0.225280
v 0.240804 -0.168965 -0.225280
v -0.359196 -0.368965 0.174720
v -0.159196 -0.368965 0.174720
v -0.359196 -0.368965 -0.025280
v -0.159196 -0.368965 -0.025280
v 0.040804 -0.368965 -0.025280
v 0.240804 -0.368965 -0.025280
v 0.040804 -0.368965 -0.225280
v 0.240804 -0.368965 -0.225280
v -0.159196 0.031035 0.074719
v -0.059196 0.031035 0.074719
v 0.140804 0.031035 0.074719
v 0.240804 0.031035 0.074719
v -0.159196 0.031035 -0.025280
v -0.059196 0.031035 -0.025280
v 0.140804 0.031035 -0.025280
v 0.240804 0.031035 -0.025280
v -0.059196 0.131035 0.074719
v 0.040804 0.131035 0.074719
v -0.059196 0.131035 -0.025280
v 0.040804 0.131035 -0.025280
v 0.040804 0.231035 0.074719
v 0.140804 0.231035 0.074719
v 0.040804 0.231035 -0.025280
v 0.140804 0.231035 -0.025280
v -0.359196 -0.168965 0.174720
v -0.159196 -0.168965 0.174720
v -0.259196 -0.168965 0.074719
v -0.159196 -0.168965 0.074719
v -0.359196 -0.168965 -0.025280
v -0.259196 -0.168965 -0.025280
v 0.040804 -0.168965 -0.025280
v 0.140804 -0.168965 -0.025280
v 0.140804 -0.168965 -0.125280
v 0.240804 -0.168965 -0.125280
v 0.040804 -0.168965 -0.225280
v 0.240804 -0.168965 -0.225280
v -0.259196 0.031035 0.074719
v -0.159196 0.031035 0.074719
v -0.259196 0.031035 -0.025280
v -0.159196 0.031035 -0.025280
v 0.140804 0.031035 -0.025280
v 0.240804 0.031035 -0.025280
v 0.140804 0.031035 -0.125280
v 0.240804 0.031035 -0.125280
v -0.159196 0.131035 0.074719
v -0.059196 0.131035 0.074719
v -0.159196 0.131035 -0.025280
v -0.059196 0.131035 -0.025280
v -0.059196 0.231035 0.074719
v 0.040804 0.231035 0.074719
v 0.140804 0.231035 0.074719
v 0.240804 0.231035 0.074719
v -0.059196 0.231035 -0.025280
v 0.040804 0.231035 -0.025280
v 0.140804 0.231035 -0.025280
v 0.240804 0.231035 -0.025280
v 0.040804 0.331035 0.074719
v 0.140804 0.331035 0.074719
v 0.040804 0.331035 -0.025280
v 0.140804 0.331035 -0.025280
vn -1.0000 -0.0000 -0.0000
vn 1.0000 -0.0000 -0.0000
vn -0.0000 -0.0000 1.0000
vn -0.0000 -0.0000 -1.0000
vn -0.0000 -1.0000 -0.0000
vn -0.0000 1.0000 -0.0000
vt 0.001953 0.500000
vt 0.005859 0.500000
s 0
usemtl palette.013
f 3/1/1 2/1/1 1/1/1
f 4/1/1 2/1/1 3/1/1
f 7/2/1 6/2/1 5/2/1
f 8/2/1 6/2/1 7/2/1
f 11/2/1 10/2/1 9/2/1
f 12/2/1 10/2/1 11/2/1
f 15/2/1 14/2/1 13/2/1
f 16/2/1 14/2/1 15/2/1
f 19/1/1 18/1/1 17/1/1
f 20/1/1 18/1/1 19/1/1
f 23/2/1 22/2/1 21/2/1
f 24/2/1 22/2/1 23/2/1
f 28/2/1 26/2/1 25/2/1
f 29/2/1 26/2/1 28/2/1
f 30/2/1 28/2/1 27/2/1
f 31/2/1 28/2/1 30/2/1
f 32/1/2 33/1/2 34/1/2
f 34/1/2 33/1/2 35/1/2
f 35/1/2 33/1/2 36/1/2
f 35/2/2 36/2/2 37/2/2
f 37/2/2 36/2/2 38/2/2
f 39/2/2 40/2/2 41/2/2
f 41/2/2 40/2/2 42/2/2
f 43/2/2 44/2/2 45/2/2
f 45/2/2 44/2/2 46/2/2
f 47/2/2 48/2/2 49/2/2
f 49/2/2 48/2/2 50/2/2
f 51/1/2 52/1/2 53/1/2
f 53/1/2 52/1/2 54/1/2
f 54/1/2 52/1/2 55/1/2
f 53/2/2 54/2/2 57/2/2
f 57/2/2 54/2/2 58/2/2
f 56/2/2 57/2/2 59/2/2
f 59/2/2 57/2/2 60/2/2
f 63/1/3 62/1/3 61/1/3
f 64/1/3 62/1/3 63/1/3
f 67/2/3 66/2/3 65/2/3
f 68/2/3 66/2/3 67/2/3
f 70/2/3 69/2/3 68/2/3
f 71/2/3 69/2/3 70/2/3
f 73/2/3 72/2/3 71/2/3
f 74/2/3 72/2/3 73/2/3
f 77/2/3 75/2/3 74/2/3
f 78/2/3 75/2/3 77/2/3
f 79/2/3 77/2/3 76/2/3
f 80/2/3 77/2/3 79/2/3
f 83/1/3 82/1/3 81/1/3
f 85/1/3 83/1/3 81/1/3
f 86/2/3 84/2/3 83/2/3
f 86/1/3 83/1/3 85/1/3
f 87/2/3 84/2/3 86/2/3
f 88/1/4 89/1/4 90/1/4
f 88/1/4 90/1/4 92/1/4
f 90/2/4 91/2/4 93/2/4
f 92/1/4 90/1/4 93/1/4
f 93/2/4 91/2/4 94/2/4
f 94/2/4 95/2/4 96/2/4
f 96/2/4 95/2/4 97/2/4
f 97/2/4 98/2/4 99/2/4
f 99/2/4 98/2/4 100/2/4
f 100/2/4 101/2/4 103/2/4
f 103/2/4 101/2/4 104/2/4
f 102/2/4 103/2/4 105/2/4
f 105/2/4 103/2/4 106/2/4
f 107/2/4 108/2/4 109/2/4
f 109/2/4 108/2/4 110/2/4
f 111/1/4 112/1/4 113/1/4
f 113/1/4 112/1/4 114/1/4
f 117/1/5 116/1/5 115/1/5
f 118/1/5 116/1/5 117/1/5
f 121/1/5 120/1/5 119/1/5
f 122/1/5 120/1/5 121/1/5
f 127/2/5 124/2/5 123/2/5
f 128/2/5 124/2/5 127/2/5
f 129/2/5 126/2/5 125/2/5
f 130/2/5 126/2/5 129/2/5
f 133/2/5 132/2/5 131/2/5
f 134/2/5 132/2/5 133/2/5
f 137/2/5 136/2/5 135/2/5
f 138/2/5 136/2/5 137/2/5
f 139/1/6 140/1/6 141/1/6
f 141/1/6 140/1/6 142/1/6
f 139/1/6 141/1/6 143/1/6
f 143/1/6 141/1/6 144/1/6
f 145/1/6 146/1/6 147/1/6
f 145/1/6 147/1/6 149/1/6
f 147/1/6 148/1/6 149/1/6
f 149/1/6 148/1/6 150/1/6
f 151/2/6 152/2/6 153/2/6
f 153/2/6 152/2/6 154/2/6
f 155/2/6 156/2/6 157/2/6
f 157/2/6 156/2/6 158/2/6
f 159/2/6 160/2/6 161/2/6
f 161/2/6 160/2/6 162/2/6
f 163/2/6 164/2/6 167/2/6
f 167/2/6 164/2/6 168/2/6
f 165/2/6 166/2/6 169/2/6
f 169/2/6 166/2/6 170/2/6
f 171/2/6 172/2/6 173/2/6
f 173/2/6 172/2/6 174/2/6
