# Blender 4.2.2 LTS
# www.blender.org
mtllib Eggplant-0.mtl
o Untitled
v -0.696984 0.266332 0.046478
v -0.696984 0.266332 -0.053522
v -0.696984 0.466332 0.046478
v -0.696984 0.466332 -0.053522
v -0.596984 0.066332 0.046478
v -0.596984 0.066332 -0.053522
v -0.596984 0.166332 0.146478
v -0.596984 0.166332 0.046478
v -0.596984 0.266332 0.146478
v -0.596984 0.266332 0.046478
v -0.596984 0.266332 -0.053522
v -0.496984 -0.133668 0.046478
v -0.496984 -0.133668 -0.053522
v -0.496984 -0.033668 0.146478
v -0.496984 -0.033668 0.046478
v -0.496984 -0.033668 -0.053522
v -0.496984 -0.033668 -0.153522
v -0.496984 0.066332 0.146478
v -0.496984 0.066332 0.046478
v -0.496984 0.066332 -0.053522
v -0.496984 0.166332 0.146478
v -0.496984 0.166332 0.046478
v -0.496984 0.166332 -0.053522
v -0.496984 0.166332 -0.153522
v -0.496984 0.266332 -0.053522
v -0.496984 0.266332 -0.153522
v -0.396984 -0.233668 0.146478
v -0.396984 -0.233668 -0.153522
v -0.396984 -0.133668 0.246478
v -0.396984 -0.133668 0.146478
v -0.396984 -0.133668 0.046478
v -0.396984 -0.133668 -0.053522
v -0.396984 -0.133668 -0.153522
v -0.396984 -0.133668 -0.253522
v -0.396984 -0.033668 0.146478
v -0.396984 -0.033668 0.046478
v -0.396984 -0.033668 -0.053522
v -0.396984 -0.033668 -0.153522
v -0.396984 0.066332 0.146478
v -0.396984 0.166332 0.246478
v -0.396984 0.166332 0.146478
v -0.396984 0.166332 -0.153522
v -0.396984 0.166332 -0.253522
v -0.296983 -0.333668 0.146478
v -0.296983 -0.333668 -0.153522
v -0.296983 -0.233668 0.246478
v -0.296983 -0.233668 0.146478
v -0.296983 -0.233668 -0.153522
v -0.296983 -0.233668 -0.253522
v -0.296983 -0.133668 0.246478
v -0.296983 -0.133668 0.146478
v -0.296983 -0.133668 -0.153522
v -0.296983 -0.133668 -0.253522
v -0.096984 -0.433668 0.146478
v -0.096984 -0.433668 -0.153522
v -0.096984 -0.333668 0.246478
v -0.096984 -0.333668 0.146478
v -0.096984 -0.333668 -0.153522
v -0.096984 -0.333668 -0.253522
v -0.096984 -0.233668 0.246478
v -0.096984 -0.233668 0.146478
v -0.096984 -0.233668 -0.153522
v -0.096984 -0.233668 -0.253522
v 0.703017 -0.033668 0.246478
v 0.703017 -0.033668 0.146478
v 0.703017 -0.033668 -0.153522
v 0.703017 -0.033668 -0.253522
v 0.703017 0.066332 0.246478
v 0.703017 0.066332 0.146478
v 0.703017 0.066332 -0.153522
v 0.703017 0.066332 -0.253522
v 0.703017 0.166332 0.146478
v 0.703017 0.166332 -0.153522
v -0.596984 0.366332 0.046478
v -0.596984 0.366332 -0.053522
v -0.596984 0.466332 0.046478
v -0.596984 0.466332 -0.053522
v -0.396984 0.266332 0.046478
v -0.396984 0.266332 -0.053522
v -0.396984 0.366332 0.046478
v -0.396984 0.366332 -0.053522
v -0.296983 0.166332 0.146478
v -0.296983 0.166332 0.046478
v -0.296983 0.166332 -0.053522
v -0.296983 0.166332 -0.153522
v -0.296983 0.266332 0.146478
v -0.296983 0.266332 0.046478
v -0.296983 0.266332 -0.053522
v -0.296983 0.266332 -0.153522
v -0.196984 0.066332 0.246478
v -0.196984 0.066332 0.146478
v -0.196984 0.066332 -0.153522
v -0.196984 0.066332 -0.253522
v -0.196984 0.166332 0.246478
v -0.196984 0.166332 0.146478
v -0.196984 0.166332 -0.153522
v -0.196984 0.166332 -0.253522
v -0.096984 -0.033668 0.246478
v -0.096984 -0.033668 0.146478
v -0.096984 -0.033668 -0.153522
v -0.096984 -0.033668 -0.253522
v -0.096984 0.066332 0.246478
v -0.096984 0.066332 0.146478
v -0.096984 0.066332 -0.153522
v -0.096984 0.066332 -0.253522
v -0.096984 0.166332 0.146478
v -0.096984 0.166332 -0.153522
v 0.903016 -0.433668 0.146478
v 0.903016 -0.433668 -0.153522
v 0.903016 -0.333668 0.246478
v 0.903016 -0.333668 0.146478
v 0.903016 -0.333668 -0.153522
v 0.903016 -0.333668 -0.253522
v 0.903016 -0.233668 0.246478
v 0.903016 -0.233668 0.146478
v 0.903016 -0.233668 -0.153522
v 0.903016 -0.233668 -0.253522
v 1.103016 -0.333668 0.146478
v 1.103016 -0.333668 -0.153522
v 1.103016 -0.233668 0.246478
v 1.103016 -0.233668 0.146478
v 1.103016 -0.233668 -0.153522
v 1.103016 -0.233668 -0.253522
v 1.103016 0.066332 0.246478
v 1.103016 0.066332 0.146478
v 1.103016 0.066332 -0.153522
v 1.103016 0.066332 -0.253522
v 1.103016 0.166332 0.146478
v 1.103016 0.166332 -0.153522
v 1.203017 -0.233668 0.146478
v 1.203017 -0.233668 -0.153522
v 1.203017 0.066332 0.146478
v 1.203017 0.066332 -0.153522
v -0.396984 -0.133668 0.246478
v -0.396984 0.166332 0.246478
v -0.296983 -0.233668 0.246478
v -0.296983 -0.133668 0.246478
v -0.196984 0.066332 0.246478
v -0.196984 0.166332 0.246478
v -0.096984 -0.333668 0.246478
v -0.096984 -0.233668 0.246478
v -0.096984 -0.033668 0.246478
v -0.096984 0.066332 0.246478
v 0.703017 -0.033668 0.246478
v 0.703017 0.066332 0.246478
v 0.903016 -0.333668 0.246478
v 0.903016 -0.233668 0.246478
v 1.103016 -0.233668 0.246478
v 1.103016 0.066332 0.246478
v -0.596984 0.166332 0.146478
v -0.596984 0.266332 0.146478
v -0.496984 -0.033668 0.146478
v -0.496984 0.066332 0.146478
v -0.496984 0.166332 0.146478
v -0.496984 0.266332 0.146478
v -0.396984 -0.233668 0.146478
v -0.396984 -0.133668 0.146478
v -0.396984 -0.033668 0.146478
v -0.396984 0.066332 0.146478
v -0.396984 0.166332 0.146478
v -0.296983 -0.333668 0.146478
v -0.296983 -0.233668 0.146478
v -0.296983 -0.133668 0.146478
v -0.296983 0.166332 0.146478
v -0.296983 0.266332 0.146478
v -0.196984 0.066332 0.146478
v -0.196984 0.166332 0.146478
v -0.096984 -0.433668 0.146478
v -0.096984 -0.333668 0.146478
v -0.096984 -0.233668 0.146478
v -0.096984 -0.033668 0.146478
v -0.096984 0.066332 0.146478
v -0.096984 0.166332 0.146478
v 0.703017 -0.033668 0.146478
v 0.703017 0.066332 0.146478
v 0.703017 0.166332 0.146478
v 0.903016 -0.433668 0.146478
v 0.903016 -0.333668 0.146478
v 0.903016 -0.233668 0.146478
v 1.103016 -0.333668 0.146478
v 1.103016 -0.233668 0.146478
v 1.103016 0.066332 0.146478
v 1.103016 0.166332 0.146478
v 1.203017 -0.233668 0.146478
v 1.203017 0.066332 0.146478
v -0.696984 0.266332 0.046478
v -0.696984 0.466332 0.046478
v -0.596984 0.066332 0.046478
v -0.596984 0.166332 0.046478
v -0.596984 0.266332 0.046478
v -0.596984 0.366332 0.046478
v -0.596984 0.466332 0.046478
v -0.496984 -0.133668 0.046478
v -0.496984 -0.033668 0.046478
v -0.496984 0.066332 0.046478
v -0.496984 0.166332 0.046478
v -0.496984 0.266332 0.046478
v -0.396984 -0.133668 0.046478
v -0.396984 -0.033668 0.046478
v -0.396984 0.266332 0.046478
v -0.396984 0.366332 0.046478
v -0.696984 0.266332 -0.053522
v -0.696984 0.466332 -0.053522
v -0.596984 0.066332 -0.053522
v -0.596984 0.266332 -0.053522
v -0.596984 0.366332 -0.053522
v -0.596984 0.466332 -0.053522
v -0.496984 -0.133668 -0.053522
v -0.496984 -0.033668 -0.053522
v -0.496984 0.066332 -0.053522
v -0.496984 0.166332 -0.053522
v -0.496984 0.266332 -0.053522
v -0.396984 -0.133668 -0.053522
v -0.396984 -0.033668 -0.053522
v -0.396984 0.266332 -0.053522
v -0.396984 0.366332 -0.053522
v -0.496984 -0.033668 -0.153522
v -0.496984 0.166332 -0.153522
v -0.496984 0.266332 -0.153522
v -0.396984 -0.233668 -0.153522
v -0.396984 -0.133668 -0.153522
v -0.396984 -0.033668 -0.153522
v -0.396984 0.166332 -0.153522
v -0.396984 0.266332 -0.153522
v -0.296983 -0.333668 -0.153522
v -0.296983 -0.233668 -0.153522
v -0.296983 -0.133668 -0.153522
v -0.296983 0.166332 -0.153522
v -0.296983 0.266332 -0.153522
v -0.196984 0.066332 -0.153522
v -0.196984 0.166332 -0.153522
v -0.096984 -0.433668 -0.153522
v -0.096984 -0.333668 -0.153522
v -0.096984 -0.233668 -0.153522
v -0.096984 -0.033668 -0.153522
v -0.096984 0.066332 -0.153522
v -0.096984 0.166332 -0.153522
v 0.703017 -0.033668 -0.153522
v 0.703017 0.066332 -0.153522
v 0.703017 0.166332 -0.153522
v 0.903016 -0.433668 -0.153522
v 0.903016 -0.333668 -0.153522
v 0.903016 -0.233668 -0.153522
v 1.103016 -0.333668 -0.153522
v 1.103016 -0.233668 -0.153522
v 1.103016 0.066332 -0.153522
v 1.103016 0.166332 -0.153522
v 1.203017 -0.233668 -0.153522
v 1.203017 0.066332 -0.153522
v -0.396984 -0.133668 -0.253522
v -0.396984 0.166332 -0.253522
v -0.296983 -0.233668 -0.253522
v -0.296983 -0.133668 -0.253522
v -0.196984 0.066332 -0.253522
v -0.196984 0.166332 -0.253522
v -0.096984 -0.333668 -0.253522
v -0.096984 -0.233668 -0.253522
v -0.096984 -0.033668 -0.253522
v -0.096984 0.066332 -0.253522
v 0.703017 -0.033668 -0.253522
v 0.703017 0.066332 -0.253522
v 0.903016 -0.333668 -0.253522
v 0.903016 -0.233668 -0.253522
v 1.103016 -0.233668 -0.253522
v 1.103016 0.066332 -0.253522
v -0.096984 -0.433668 0.146478
v 0.903016 -0.433668 0.146478
v -0.096984 -0.433668 -0.153522
v 0.903016 -0.433668 -0.153522
v -0.096984 -0.333668 0.246478
v 0.903016 -0.333668 0.246478
v -0.296983 -0.333668 0.146478
v -0.096984 -0.333668 0.146478
v 0.903016 -0.333668 0.146478
v 1.103016 -0.333668 0.146478
v -0.296983 -0.333668 -0.153522
v -0.096984 -0.333668 -0.153522
v 0.903016 -0.333668 -0.153522
v 1.103016 -0.333668 -0.153522
v -0.096984 -0.333668 -0.253522
v 0.903016 -0.333668 -0.253522
v -0.296983 -0.233668 0.246478
v -0.096984 -0.233668 0.246478
v 0.903016 -0.233668 0.246478
v 1.103016 -0.233668 0.246478
v -0.396984 -0.233668 0.146478
v -0.296983 -0.233668 0.146478
v -0.096984 -0.233668 0.146478
v 0.903016 -0.233668 0.146478
v 1.103016 -0.233668 0.146478
v 1.203017 -0.233668 0.146478
v -0.396984 -0.233668 -0.153522
v -0.296983 -0.233668 -0.153522
v -0.096984 -0.233668 -0.153522
v 0.903016 -0.233668 -0.153522
v 1.103016 -0.233668 -0.153522
v 1.203017 -0.233668 -0.153522
v -0.296983 -0.233668 -0.253522
v -0.096984 -0.233668 -0.253522
v 0.903016 -0.233668 -0.253522
v 1.103016 -0.233668 -0.253522
v -0.396984 -0.133668 0.246478
v -0.296983 -0.133668 0.246478
v -0.396984 -0.133668 0.146478
v -0.296983 -0.133668 0.146478
v -0.496984 -0.133668 0.046478
v -0.396984 -0.133668 0.046478
v -0.496984 -0.133668 -0.053522
v -0.396984 -0.133668 -0.053522
v -0.396984 -0.133668 -0.153522
v -0.296983 -0.133668 -0.153522
v -0.396984 -0.133668 -0.253522
v -0.296983 -0.133668 -0.253522
v -0.496984 -0.033668 0.146478
v -0.396984 -0.033668 0.146478
v -0.496984 -0.033668 0.046478
v -0.396984 -0.033668 0.046478
v -0.496984 -0.033668 -0.053522
v -0.396984 -0.033668 -0.053522
v -0.496984 -0.033668 -0.153522
v -0.396984 -0.033668 -0.153522
v -0.596984 0.066332 0.046478
v -0.496984 0.066332 0.046478
v -0.596984 0.066332 -0.053522
v -0.496984 0.066332 -0.053522
v -0.596984 0.166332 0.146478
v -0.496984 0.166332 0.146478
v -0.596984 0.166332 0.046478
v -0.496984 0.166332 0.046478
v -0.696984 0.266332 0.046478
v -0.596984 0.266332 0.046478
v -0.696984 0.266332 -0.053522
v -0.596984 0.266332 -0.053522
v -0.096984 -0.033668 0.246478
v 0.703017 -0.033668 0.246478
v -0.096984 -0.033668 0.146478
v 0.703017 -0.033668 0.146478
v -0.096984 -0.033668 -0.153522
v 0.703017 -0.033668 -0.153522
v -0.096984 -0.033668 -0.253522
v 0.703017 -0.033668 -0.253522
v -0.196984 0.066332 0.246478
v -0.096984 0.066332 0.246478
v 0.703017 0.066332 0.246478
v 1.103016 0.066332 0.246478
v -0.196984 0.066332 0.146478
v -0.096984 0.066332 0.146478
v 0.703017 0.066332 0.146478
v 1.103016 0.066332 0.146478
v 1.203017 0.066332 0.146478
v -0.196984 0.066332 -0.153522
v -0.096984 0.066332 -0.153522
v 0.703017 0.066332 -0.153522
v 1.103016 0.066332 -0.153522
v 1.203017 0.066332 -0.153522
v -0.196984 0.066332 -0.253522
v -0.096984 0.066332 -0.253522
v 0.703017 0.066332 -0.253522
v 1.103016 0.066332 -0.253522
v -0.396984 0.166332 0.246478
v -0.196984 0.166332 0.246478
v -0.396984 0.166332 0.146478
v -0.296983 0.166332 0.146478
v -0.196984 0.166332 0.146478
v -0.096984 0.166332 0.146478
v 0.703017 0.166332 0.146478
v 1.103016 0.166332 0.146478
v -0.296983 0.166332 0.046478
v -0.296983 0.166332 -0.053522
v -0.396984 0.166332 -0.153522
v -0.296983 0.166332 -0.153522
v -0.196984 0.166332 -0.153522
v -0.096984 0.166332 -0.153522
v 0.703017 0.166332 -0.153522
v 1.103016 0.166332 -0.153522
v -0.396984 0.166332 -0.253522
v -0.196984 0.166332 -0.253522
v -0.596984 0.266332 0.146478
v -0.496984 0.266332 0.146478
v -0.296983 0.266332 0.146478
v -0.596984 0.266332 0.046478
v -0.496984 0.266332 0.046478
v -0.396984 0.266332 0.046478
v -0.296983 0.266332 0.046478
v -0.496984 0.266332 -0.053522
v -0.396984 0.266332 -0.053522
v -0.296983 0.266332 -0.053522
v -0.496984 0.266332 -0.153522
v -0.396984 0.266332 -0.153522
v -0.296983 0.266332 -0.153522
v -0.596984 0.366332 0.046478
v -0.396984 0.366332 0.046478
v -0.596984 0.366332 -0.053522
v -0.396984 0.366332 -0.053522
v -0.696984 0.466332 0.046478
v -0.596984 0.466332 0.046478
v -0.696984 0.466332 -0.053522
v -0.596984 0.466332 -0.053522
vn -1.0000 -0.0000 -0.0000
vn 1.0000 -0.0000 -0.0000
vn -0.0000 -0.0000 1.0000
vn -0.0000 -0.0000 -1.0000
vn -0.0000 -1.0000 -0.0000
vn -0.0000 1.0000 -0.0000
vt 0.162109 0.500000
vt 0.251953 0.500000
s 0
usemtl palette.019
f 3/1/1 2/1/1 1/1/1
f 4/1/1 2/1/1 3/1/1
f 8/1/1 6/1/1 5/1/1
f 9/1/1 8/1/1 7/1/1
f 10/1/1 6/1/1 8/1/1
f 10/1/1 8/1/1 9/1/1
f 11/1/1 6/1/1 10/1/1
f 15/2/1 13/2/1 12/2/1
f 16/2/1 13/2/1 15/2/1
f 18/2/1 15/2/1 14/2/1
f 18/2/1 17/2/1 16/2/1
f 18/2/1 16/2/1 15/2/1
f 19/2/1 17/2/1 18/2/1
f 20/2/1 17/2/1 19/2/1
f 21/1/1 19/1/1 18/1/1
f 22/1/1 19/1/1 21/1/1
f 23/2/1 17/2/1 20/2/1
f 24/2/1 17/2/1 23/2/1
f 25/1/1 24/1/1 23/1/1
f 26/1/1 24/1/1 25/1/1
f 30/2/1 28/2/1 27/2/1
f 31/2/1 28/2/1 30/2/1
f 32/2/1 28/2/1 31/2/1
f 33/2/1 28/2/1 32/2/1
f 35/2/1 30/2/1 29/2/1
f 35/2/1 31/2/1 30/2/1
f 36/2/1 31/2/1 35/2/1
f 37/2/1 34/2/1 33/2/1
f 37/2/1 33/2/1 32/2/1
f 38/2/1 34/2/1 37/2/1
f 39/2/1 35/2/1 29/2/1
f 40/2/1 39/2/1 29/2/1
f 41/2/1 39/2/1 40/2/1
f 42/2/1 34/2/1 38/2/1
f 43/2/1 34/2/1 42/2/1
f 47/2/1 45/2/1 44/2/1
f 48/2/1 45/2/1 47/2/1
f 50/2/1 47/2/1 46/2/1
f 51/2/1 47/2/1 50/2/1
f 52/2/1 49/2/1 48/2/1
f 53/2/1 49/2/1 52/2/1
f 57/2/1 55/2/1 54/2/1
f 58/2/1 55/2/1 57/2/1
f 60/2/1 57/2/1 56/2/1
f 61/2/1 57/2/1 60/2/1
f 62/2/1 59/2/1 58/2/1
f 63/2/1 59/2/1 62/2/1
f 68/2/1 65/2/1 64/2/1
f 69/2/1 65/2/1 68/2/1
f 70/2/1 67/2/1 66/2/1
f 71/2/1 67/2/1 70/2/1
f 72/2/1 70/2/1 69/2/1
f 73/2/1 70/2/1 72/2/1
f 74/1/2 75/1/2 76/1/2
f 76/1/2 75/1/2 77/1/2
f 78/1/2 79/1/2 80/1/2
f 80/1/2 79/1/2 81/1/2
f 82/2/2 83/2/2 86/2/2
f 83/1/2 84/1/2 87/1/2
f 86/2/2 83/2/2 87/2/2
f 84/2/2 85/2/2 88/2/2
f 87/1/2 84/1/2 88/1/2
f 88/2/2 85/2/2 89/2/2
f 90/2/2 91/2/2 94/2/2
f 94/2/2 91/2/2 95/2/2
f 92/2/2 93/2/2 96/2/2
f 96/2/2 93/2/2 97/2/2
f 98/2/2 99/2/2 102/2/2
f 102/2/2 99/2/2 103/2/2
f 100/2/2 101/2/2 104/2/2
f 104/2/2 101/2/2 105/2/2
f 103/2/2 104/2/2 106/2/2
f 106/2/2 104/2/2 107/2/2
f 108/2/2 109/2/2 111/2/2
f 111/2/2 109/2/2 112/2/2
f 110/2/2 111/2/2 114/2/2
f 114/2/2 111/2/2 115/2/2
f 112/2/2 113/2/2 116/2/2
f 116/2/2 113/2/2 117/2/2
f 118/2/2 119/2/2 121/2/2
f 121/2/2 119/2/2 122/2/2
f 120/2/2 121/2/2 124/2/2
f 124/2/2 121/2/2 125/2/2
f 122/2/2 123/2/2 126/2/2
f 126/2/2 123/2/2 127/2/2
f 125/2/2 126/2/2 128/2/2
f 128/2/2 126/2/2 129/2/2
f 130/2/2 131/2/2 132/2/2
f 132/2/2 131/2/2 133/2/2
f 137/2/3 135/2/3 134/2/3
f 138/2/3 135/2/3 137/2/3
f 138/2/3 137/2/3 136/2/3
f 139/2/3 135/2/3 138/2/3
f 141/2/3 138/2/3 136/2/3
f 142/2/3 138/2/3 141/2/3
f 143/2/3 138/2/3 142/2/3
f 144/2/3 141/2/3 140/2/3
f 144/2/3 142/2/3 141/2/3
f 146/2/3 144/2/3 140/2/3
f 146/2/3 145/2/3 144/2/3
f 147/2/3 145/2/3 146/2/3
f 148/2/3 145/2/3 147/2/3
f 149/2/3 145/2/3 148/2/3
f 154/1/3 151/1/3 150/1/3
f 155/1/3 151/1/3 154/1/3
f 158/2/3 153/2/3 152/2/3
f 159/1/3 154/1/3 153/1/3
f 159/2/3 153/2/3 158/2/3
f 160/2/3 155/2/3 154/2/3
f 160/1/3 154/1/3 159/1/3
f 162/2/3 157/2/3 156/2/3
f 163/2/3 157/2/3 162/2/3
f 164/2/3 155/2/3 160/2/3
f 165/2/3 155/2/3 164/2/3
f 169/2/3 162/2/3 161/2/3
f 170/2/3 162/2/3 169/2/3
f 172/2/3 167/2/3 166/2/3
f 173/2/3 167/2/3 172/2/3
f 174/2/3 172/2/3 171/2/3
f 175/2/3 172/2/3 174/2/3
f 177/2/3 169/2/3 168/2/3
f 178/2/3 169/2/3 177/2/3
f 180/2/3 179/2/3 178/2/3
f 181/2/3 179/2/3 180/2/3
f 182/2/3 176/2/3 175/2/3
f 183/2/3 176/2/3 182/2/3
f 184/2/3 182/2/3 181/2/3
f 185/2/3 182/2/3 184/2/3
f 190/1/3 187/1/3 186/1/3
f 191/1/3 187/1/3 190/1/3
f 192/1/3 187/1/3 191/1/3
f 195/1/3 189/1/3 188/1/3
f 196/1/3 189/1/3 195/1/3
f 197/1/3 191/1/3 190/1/3
f 198/2/3 194/2/3 193/2/3
f 199/2/3 194/2/3 198/2/3
f 200/1/3 191/1/3 197/1/3
f 201/1/3 191/1/3 200/1/3
f 202/1/4 203/1/4 205/1/4
f 205/1/4 203/1/4 206/1/4
f 206/1/4 203/1/4 207/1/4
f 204/1/4 205/1/4 210/1/4
f 205/1/4 206/1/4 210/1/4
f 210/1/4 206/1/4 211/1/4
f 211/1/4 206/1/4 212/1/4
f 208/2/4 209/2/4 213/2/4
f 213/2/4 209/2/4 214/2/4
f 212/1/4 206/1/4 215/1/4
f 215/1/4 206/1/4 216/1/4
f 217/2/4 218/2/4 222/2/4
f 218/1/4 219/1/4 223/1/4
f 222/2/4 218/2/4 223/2/4
f 223/1/4 219/1/4 224/1/4
f 220/2/4 221/2/4 226/2/4
f 226/2/4 221/2/4 227/2/4
f 223/2/4 224/2/4 228/2/4
f 228/2/4 224/2/4 229/2/4
f 225/2/4 226/2/4 233/2/4
f 233/2/4 226/2/4 234/2/4
f 230/2/4 231/2/4 236/2/4
f 236/2/4 231/2/4 237/2/4
f 235/2/4 236/2/4 238/2/4
f 238/2/4 236/2/4 239/2/4
f 232/2/4 233/2/4 241/2/4
f 241/2/4 233/2/4 242/2/4
f 242/2/4 243/2/4 244/2/4
f 244/2/4 243/2/4 245/2/4
f 239/2/4 240/2/4 246/2/4
f 246/2/4 240/2/4 247/2/4
f 245/2/4 246/2/4 248/2/4
f 248/2/4 246/2/4 249/2/4
f 250/2/4 251/2/4 253/2/4
f 253/2/4 251/2/4 254/2/4
f 252/2/4 253/2/4 254/2/4
f 254/2/4 251/2/4 255/2/4
f 252/2/4 254/2/4 257/2/4
f 257/2/4 254/2/4 258/2/4
f 258/2/4 254/2/4 259/2/4
f 256/2/4 257/2/4 260/2/4
f 257/2/4 258/2/4 260/2/4
f 256/2/4 260/2/4 262/2/4
f 260/2/4 261/2/4 262/2/4
f 262/2/4 261/2/4 263/2/4
f 263/2/4 261/2/4 264/2/4
f 264/2/4 261/2/4 265/2/4
f 268/2/5 267/2/5 266/2/5
f 269/2/5 267/2/5 268/2/5
f 273/2/5 271/2/5 270/2/5
f 274/2/5 271/2/5 273/2/5
f 276/2/5 273/2/5 272/2/5
f 277/2/5 273/2/5 276/2/5
f 278/2/5 275/2/5 274/2/5
f 279/2/5 275/2/5 278/2/5
f 280/2/5 278/2/5 277/2/5
f 281/2/5 278/2/5 280/2/5
f 287/2/5 283/2/5 282/2/5
f 288/2/5 283/2/5 287/2/5
f 289/2/5 285/2/5 284/2/5
f 290/2/5 285/2/5 289/2/5
f 292/2/5 287/2/5 286/2/5
f 293/2/5 287/2/5 292/2/5
f 296/2/5 291/2/5 290/2/5
f 297/2/5 291/2/5 296/2/5
f 298/2/5 294/2/5 293/2/5
f 299/2/5 294/2/5 298/2/5
f 300/2/5 296/2/5 295/2/5
f 301/2/5 296/2/5 300/2/5
f 304/2/5 303/2/5 302/2/5
f 305/2/5 303/2/5 304/2/5
f 308/2/5 307/2/5 306/2/5
f 309/2/5 307/2/5 308/2/5
f 312/2/5 311/2/5 310/2/5
f 313/2/5 311/2/5 312/2/5
f 316/2/5 315/2/5 314/2/5
f 317/2/5 315/2/5 316/2/5
f 320/2/5 319/2/5 318/2/5
f 321/2/5 319/2/5 320/2/5
f 324/1/5 323/1/5 322/1/5
f 325/1/5 323/1/5 324/1/5
f 328/1/5 327/1/5 326/1/5
f 329/1/5 327/1/5 328/1/5
f 332/1/5 331/1/5 330/1/5
f 333/1/5 331/1/5 332/1/5
f 334/2/6 335/2/6 336/2/6
f 336/2/6 335/2/6 337/2/6
f 338/2/6 339/2/6 340/2/6
f 340/2/6 339/2/6 341/2/6
f 342/2/6 343/2/6 346/2/6
f 346/2/6 343/2/6 347/2/6
f 344/2/6 345/2/6 348/2/6
f 348/2/6 345/2/6 349/2/6
f 347/2/6 348/2/6 352/2/6
f 352/2/6 348/2/6 353/2/6
f 349/2/6 350/2/6 354/2/6
f 354/2/6 350/2/6 355/2/6
f 351/2/6 352/2/6 356/2/6
f 356/2/6 352/2/6 357/2/6
f 353/2/6 354/2/6 358/2/6
f 358/2/6 354/2/6 359/2/6
f 360/2/6 361/2/6 362/2/6
f 362/2/6 361/2/6 363/2/6
f 363/2/6 361/2/6 364/2/6
f 363/2/6 364/2/6 368/2/6
f 364/2/6 365/2/6 368/2/6
f 368/2/6 365/2/6 369/2/6
f 369/2/6 365/2/6 371/2/6
f 371/2/6 365/2/6 372/2/6
f 372/2/6 365/2/6 373/2/6
f 366/2/6 367/2/6 374/2/6
f 374/2/6 367/2/6 375/2/6
f 370/2/6 371/2/6 376/2/6
f 371/2/6 372/2/6 376/2/6
f 376/2/6 372/2/6 377/2/6
f 378/1/6 379/1/6 381/1/6
f 379/2/6 380/2/6 382/2/6
f 381/1/6 379/1/6 382/1/6
f 382/2/6 380/2/6 383/2/6
f 383/2/6 380/2/6 384/2/6
f 383/1/6 384/1/6 386/1/6
f 386/1/6 384/1/6 387/1/6
f 385/1/6 386/1/6 388/1/6
f 386/2/6 387/2/6 389/2/6
f 388/1/6 386/1/6 389/1/6
f 389/2/6 387/2/6 390/2/6
f 391/1/6 392/1/6 393/1/6
f 393/1/6 392/1/6 394/1/6
f 395/1/6 396/1/6 397/1/6
f 397/1/6 396/1/6 398/1/6
