# Blender 4.2.2 LTS
# www.blender.org
mtllib OnionPeeled-0.mtl
o Untitled
v -0.350000 -0.320720 0.150000
v -0.350000 -0.320720 -0.150000
v -0.350000 -0.220720 0.250000
v -0.350000 -0.220720 0.150000
v -0.350000 -0.220720 -0.150000
v -0.350000 -0.220720 -0.250000
v -0.350000 0.179280 0.250000
v -0.350000 0.179280 0.150000
v -0.350000 0.179280 -0.150000
v -0.350000 0.179280 -0.250000
v -0.350000 0.279280 0.150000
v -0.350000 0.279280 -0.150000
v -0.250000 -0.320720 0.250000
v -0.250000 -0.320720 0.150000
v -0.250000 -0.320720 -0.150000
v -0.250000 -0.320720 -0.250000
v -0.250000 -0.220720 0.350000
v -0.250000 -0.220720 0.250000
v -0.250000 -0.220720 0.150000
v -0.250000 -0.220720 -0.150000
v -0.250000 -0.220720 -0.250000
v -0.250000 -0.220720 -0.350000
v -0.250000 0.179280 0.350000
v -0.250000 0.179280 0.250000
v -0.250000 0.179280 0.150000
v -0.250000 0.179280 -0.150000
v -0.250000 0.179280 -0.250000
v -0.250000 0.179280 -0.350000
v -0.250000 0.279280 0.250000
v -0.250000 0.279280 0.150000
v -0.250000 0.279280 -0.150000
v -0.250000 0.279280 -0.250000
v -0.150000 -0.420720 0.150000
v -0.150000 -0.420720 0.050000
v -0.150000 -0.420720 -0.050000
v -0.150000 -0.420720 -0.150000
v -0.150000 -0.320720 0.350000
v -0.150000 -0.320720 0.250000
v -0.150000 -0.320720 0.150000
v -0.150000 -0.320720 0.050000
v -0.150000 -0.320720 -0.050000
v -0.150000 -0.320720 -0.150000
v -0.150000 -0.320720 -0.250000
v -0.150000 -0.320720 -0.350000
v -0.150000 -0.220720 0.350000
v -0.150000 -0.220720 0.250000
v -0.150000 -0.220720 -0.250000
v -0.150000 -0.220720 -0.350000
v -0.150000 0.179280 0.350000
v -0.150000 0.179280 0.250000
v -0.150000 0.179280 -0.250000
v -0.150000 0.179280 -0.350000
v -0.150000 0.279280 0.350000
v -0.150000 0.279280 0.250000
v -0.150000 0.279280 0.150000
v -0.150000 0.279280 0.050000
v -0.150000 0.279280 -0.050000
v -0.150000 0.279280 -0.150000
v -0.150000 0.279280 -0.250000
v -0.150000 0.279280 -0.350000
v -0.150000 0.379280 0.150000
v -0.150000 0.379280 0.050000
v -0.150000 0.379280 -0.050000
v -0.150000 0.379280 -0.150000
v -0.050000 0.379280 0.050000
v -0.050000 0.379280 -0.050000
v -0.050000 0.479280 0.050000
v -0.050000 0.479280 -0.050000
v 0.050000 0.379280 0.050000
v 0.050000 0.379280 -0.050000
v 0.050000 0.479280 0.050000
v 0.050000 0.479280 -0.050000
v 0.150000 -0.420720 0.150000
v 0.150000 -0.420720 0.050000
v 0.150000 -0.420720 -0.050000
v 0.150000 -0.420720 -0.150000
v 0.150000 -0.320720 0.350000
v 0.150000 -0.320720 0.250000
v 0.150000 -0.320720 0.150000
v 0.150000 -0.320720 0.050000
v 0.150000 -0.320720 -0.050000
v 0.150000 -0.320720 -0.150000
v 0.150000 -0.320720 -0.250000
v 0.150000 -0.320720 -0.350000
v 0.150000 -0.220720 0.350000
v 0.150000 -0.220720 0.250000
v 0.150000 -0.220720 -0.250000
v 0.150000 -0.220720 -0.350000
v 0.150000 0.179280 0.350000
v 0.150000 0.179280 0.250000
v 0.150000 0.179280 -0.250000
v 0.150000 0.179280 -0.350000
v 0.150000 0.279280 0.350000
v 0.150000 0.279280 0.250000
v 0.150000 0.279280 0.150000
v 0.150000 0.279280 0.050000
v 0.150000 0.279280 -0.050000
v 0.150000 0.279280 -0.150000
v 0.150000 0.279280 -0.250000
v 0.150000 0.279280 -0.350000
v 0.150000 0.379280 0.150000
v 0.150000 0.379280 0.050000
v 0.150000 0.379280 -0.050000
v 0.150000 0.379280 -0.150000
v 0.250000 -0.320720 0.250000
v 0.250000 -0.320720 0.150000
v 0.250000 -0.320720 -0.150000
v 0.250000 -0.320720 -0.250000
v 0.250000 -0.220720 0.350000
v 0.250000 -0.220720 0.250000
v 0.250000 -0.220720 0.150000
v 0.250000 -0.220720 -0.150000
v 0.250000 -0.220720 -0.250000
v 0.250000 -0.220720 -0.350000
v 0.250000 0.179280 0.350000
v 0.250000 0.179280 0.250000
v 0.250000 0.179280 0.150000
v 0.250000 0.179280 -0.150000
v 0.250000 0.179280 -0.250000
v 0.250000 0.179280 -0.350000
v 0.250000 0.279280 0.250000
v 0.250000 0.279280 0.150000
v 0.250000 0.279280 -0.150000
v 0.250000 0.279280 -0.250000
v 0.350000 -0.320720 0.150000
v 0.350000 -0.320720 -0.150000
v 0.350000 -0.220720 0.250000
v 0.350000 -0.220720 0.150000
v 0.350000 -0.220720 -0.150000
v 0.350000 -0.220720 -0.250000
v 0.350000 0.179280 0.250000
v 0.350000 0.179280 0.150000
v 0.350000 0.179280 -0.150000
v 0.350000 0.179280 -0.250000
v 0.350000 0.279280 0.150000
v 0.350000 0.279280 -0.150000
v -0.250000 -0.220720 0.350000
v -0.250000 0.179280 0.350000
v -0.150000 -0.320720 0.350000
v -0.150000 -0.220720 0.350000
v -0.150000 0.179280 0.350000
v -0.150000 0.279280 0.350000
v 0.150000 -0.320720 0.350000
v 0.150000 -0.220720 0.350000
v 0.150000 0.179280 0.350000
v 0.150000 0.279280 0.350000
v 0.250000 -0.220720 0.350000
v 0.250000 0.179280 0.350000
v -0.350000 -0.220720 0.250000
v -0.350000 0.179280 0.250000
v -0.250000 -0.320720 0.250000
v -0.250000 -0.220720 0.250000
v -0.250000 0.179280 0.250000
v -0.250000 0.279280 0.250000
v -0.150000 -0.320720 0.250000
v -0.150000 -0.220720 0.250000
v -0.150000 0.179280 0.250000
v -0.150000 0.279280 0.250000
v 0.150000 -0.320720 0.250000
v 0.150000 -0.220720 0.250000
v 0.150000 0.179280 0.250000
v 0.150000 0.279280 0.250000
v 0.250000 -0.320720 0.250000
v 0.250000 -0.220720 0.250000
v 0.250000 0.179280 0.250000
v 0.250000 0.279280 0.250000
v 0.350000 -0.220720 0.250000
v 0.350000 0.179280 0.250000
v -0.350000 -0.320720 0.150000
v -0.350000 -0.220720 0.150000
v -0.350000 0.179280 0.150000
v -0.350000 0.279280 0.150000
v -0.250000 -0.320720 0.150000
v -0.250000 -0.220720 0.150000
v -0.250000 0.179280 0.150000
v -0.250000 0.279280 0.150000
v -0.150000 -0.420720 0.150000
v -0.150000 -0.320720 0.150000
v -0.150000 0.279280 0.150000
v -0.150000 0.379280 0.150000
v -0.050000 -0.420720 0.150000
v -0.050000 -0.320720 0.150000
v -0.050000 0.279280 0.150000
v -0.050000 0.379280 0.150000
v 0.050000 -0.420720 0.150000
v 0.050000 -0.320720 0.150000
v 0.050000 0.279280 0.150000
v 0.050000 0.379280 0.150000
v 0.150000 -0.420720 0.150000
v 0.150000 -0.320720 0.150000
v 0.150000 0.279280 0.150000
v 0.150000 0.379280 0.150000
v 0.250000 -0.320720 0.150000
v 0.250000 -0.220720 0.150000
v 0.250000 0.179280 0.150000
v 0.250000 0.279280 0.150000
v 0.350000 -0.320720 0.150000
v 0.350000 -0.220720 0.150000
v 0.350000 0.179280 0.150000
v 0.350000 0.279280 0.150000
v -0.050000 0.379280 0.050000
v -0.050000 0.479280 0.050000
v 0.050000 0.379280 0.050000
v 0.050000 0.479280 0.050000
v -0.050000 0.379280 -0.050000
v -0.050000 0.479280 -0.050000
v 0.050000 0.379280 -0.050000
v 0.050000 0.479280 -0.050000
v -0.350000 -0.320720 -0.150000
v -0.350000 -0.220720 -0.150000
v -0.350000 0.179280 -0.150000
v -0.350000 0.279280 -0.150000
v -0.250000 -0.320720 -0.150000
v -0.250000 -0.220720 -0.150000
v -0.250000 0.179280 -0.150000
v -0.250000 0.279280 -0.150000
v -0.150000 -0.420720 -0.150000
v -0.150000 -0.320720 -0.150000
v -0.150000 0.279280 -0.150000
v -0.150000 0.379280 -0.150000
v -0.050000 -0.420720 -0.150000
v -0.050000 -0.320720 -0.150000
v -0.050000 0.279280 -0.150000
v -0.050000 0.379280 -0.150000
v 0.050000 -0.420720 -0.150000
v 0.050000 -0.320720 -0.150000
v 0.050000 0.279280 -0.150000
v 0.050000 0.379280 -0.150000
v 0.150000 -0.420720 -0.150000
v 0.150000 -0.320720 -0.150000
v 0.150000 0.279280 -0.150000
v 0.150000 0.379280 -0.150000
v 0.250000 -0.320720 -0.150000
v 0.250000 -0.220720 -0.150000
v 0.250000 0.179280 -0.150000
v 0.250000 0.279280 -0.150000
v 0.350000 -0.320720 -0.150000
v 0.350000 -0.220720 -0.150000
v 0.350000 0.179280 -0.150000
v 0.350000 0.279280 -0.150000
v -0.350000 -0.220720 -0.250000
v -0.350000 0.179280 -0.250000
v -0.250000 -0.320720 -0.250000
v -0.250000 -0.220720 -0.250000
v -0.250000 0.179280 -0.250000
v -0.250000 0.279280 -0.250000
v -0.150000 -0.320720 -0.250000
v -0.150000 -0.220720 -0.250000
v -0.150000 0.179280 -0.250000
v -0.150000 0.279280 -0.250000
v 0.150000 -0.320720 -0.250000
v 0.150000 -0.220720 -0.250000
v 0.150000 0.179280 -0.250000
v 0.150000 0.279280 -0.250000
v 0.250000 -0.320720 -0.250000
v 0.250000 -0.220720 -0.250000
v 0.250000 0.179280 -0.250000
v 0.250000 0.279280 -0.250000
v 0.350000 -0.220720 -0.250000
v 0.350000 0.179280 -0.250000
v -0.250000 -0.220720 -0.350000
v -0.250000 0.179280 -0.350000
v -0.150000 -0.320720 -0.350000
v -0.150000 -0.220720 -0.350000
v -0.150000 0.179280 -0.350000
v -0.150000 0.279280 -0.350000
v 0.150000 -0.320720 -0.350000
v 0.150000 -0.220720 -0.350000
v 0.150000 0.179280 -0.350000
v 0.150000 0.279280 -0.350000
v 0.250000 -0.220720 -0.350000
v 0.250000 0.179280 -0.350000
v -0.150000 -0.420720 0.150000
v -0.050000 -0.420720 0.150000
v 0.050000 -0.420720 0.150000
v 0.150000 -0.420720 0.150000
v -0.150000 -0.420720 0.050000
v -0.050000 -0.420720 0.050000
v 0.050000 -0.420720 0.050000
v 0.150000 -0.420720 0.050000
v -0.150000 -0.420720 -0.050000
v -0.050000 -0.420720 -0.050000
v 0.050000 -0.420720 -0.050000
v 0.150000 -0.420720 -0.050000
v -0.150000 -0.420720 -0.150000
v -0.050000 -0.420720 -0.150000
v 0.050000 -0.420720 -0.150000
v 0.150000 -0.420720 -0.150000
v -0.150000 -0.320720 0.350000
v 0.150000 -0.320720 0.350000
v -0.250000 -0.320720 0.250000
v -0.150000 -0.320720 0.250000
v -0.050000 -0.320720 0.250000
v 0.050000 -0.320720 0.250000
v 0.150000 -0.320720 0.250000
v 0.250000 -0.320720 0.250000
v -0.350000 -0.320720 0.150000
v -0.250000 -0.320720 0.150000
v -0.150000 -0.320720 0.150000
v -0.050000 -0.320720 0.150000
v 0.050000 -0.320720 0.150000
v 0.150000 -0.320720 0.150000
v 0.250000 -0.320720 0.150000
v 0.350000 -0.320720 0.150000
v -0.250000 -0.320720 0.050000
v -0.150000 -0.320720 0.050000
v 0.150000 -0.320720 0.050000
v 0.250000 -0.320720 0.050000
v -0.250000 -0.320720 -0.050000
v -0.150000 -0.320720 -0.050000
v 0.150000 -0.320720 -0.050000
v 0.250000 -0.320720 -0.050000
v -0.350000 -0.320720 -0.150000
v -0.250000 -0.320720 -0.150000
v -0.150000 -0.320720 -0.150000
v -0.050000 -0.320720 -0.150000
v 0.050000 -0.320720 -0.150000
v 0.150000 -0.320720 -0.150000
v 0.250000 -0.320720 -0.150000
v 0.350000 -0.320720 -0.150000
v -0.250000 -0.320720 -0.250000
v -0.150000 -0.320720 -0.250000
v -0.050000 -0.320720 -0.250000
v 0.050000 -0.320720 -0.250000
v 0.150000 -0.320720 -0.250000
v 0.250000 -0.320720 -0.250000
v -0.150000 -0.320720 -0.350000
v 0.150000 -0.320720 -0.350000
v -0.250000 -0.220720 0.350000
v -0.150000 -0.220720 0.350000
v 0.150000 -0.220720 0.350000
v 0.250000 -0.220720 0.350000
v -0.350000 -0.220720 0.250000
v -0.250000 -0.220720 0.250000
v -0.150000 -0.220720 0.250000
v 0.150000 -0.220720 0.250000
v 0.250000 -0.220720 0.250000
v 0.350000 -0.220720 0.250000
v -0.350000 -0.220720 0.150000
v -0.250000 -0.220720 0.150000
v 0.250000 -0.220720 0.150000
v 0.350000 -0.220720 0.150000
v -0.350000 -0.220720 -0.150000
v -0.250000 -0.220720 -0.150000
v 0.250000 -0.220720 -0.150000
v 0.350000 -0.220720 -0.150000
v -0.350000 -0.220720 -0.250000
v -0.250000 -0.220720 -0.250000
v -0.150000 -0.220720 -0.250000
v 0.150000 -0.220720 -0.250000
v 0.250000 -0.220720 -0.250000
v 0.350000 -0.220720 -0.250000
v -0.250000 -0.220720 -0.350000
v -0.150000 -0.220720 -0.350000
v 0.150000 -0.220720 -0.350000
v 0.250000 -0.220720 -0.350000
v -0.250000 0.179280 0.350000
v -0.150000 0.179280 0.350000
v 0.150000 0.179280 0.350000
v 0.250000 0.179280 0.350000
v -0.350000 0.179280 0.250000
v -0.250000 0.179280 0.250000
v -0.150000 0.179280 0.250000
v 0.150000 0.179280 0.250000
v 0.250000 0.179280 0.250000
v 0.350000 0.179280 0.250000
v -0.350000 0.179280 0.150000
v -0.250000 0.179280 0.150000
v 0.250000 0.179280 0.150000
v 0.350000 0.179280 0.150000
v -0.350000 0.179280 -0.150000
v -0.250000 0.179280 -0.150000
v 0.250000 0.179280 -0.150000
v 0.350000 0.179280 -0.150000
v -0.350000 0.179280 -0.250000
v -0.250000 0.179280 -0.250000
v -0.150000 0.179280 -0.250000
v 0.150000 0.179280 -0.250000
v 0.250000 0.179280 -0.250000
v 0.350000 0.179280 -0.250000
v -0.250000 0.179280 -0.350000
v -0.150000 0.179280 -0.350000
v 0.150000 0.179280 -0.350000
v 0.250000 0.179280 -0.350000
v -0.150000 0.279280 0.350000
v 0.150000 0.279280 0.350000
v -0.250000 0.279280 0.250000
v -0.150000 0.279280 0.250000
v -0.050000 0.279280 0.250000
v 0.050000 0.279280 0.250000
v 0.150000 0.279280 0.250000
v 0.250000 0.279280 0.250000
v -0.350000 0.279280 0.150000
v -0.250000 0.279280 0.150000
v -0.150000 0.279280 0.150000
v -0.050000 0.279280 0.150000
v 0.050000 0.279280 0.150000
v 0.150000 0.279280 0.150000
v 0.250000 0.279280 0.150000
v 0.350000 0.279280 0.150000
v -0.250000 0.279280 0.050000
v -0.150000 0.279280 0.050000
v 0.150000 0.279280 0.050000
v 0.250000 0.279280 0.050000
v -0.250000 0.279280 -0.050000
v -0.150000 0.279280 -0.050000
v 0.150000 0.279280 -0.050000
v 0.250000 0.279280 -0.050000
v -0.350000 0.279280 -0.150000
v -0.250000 0.279280 -0.150000
v -0.150000 0.279280 -0.150000
v -0.050000 0.279280 -0.150000
v 0.050000 0.279280 -0.150000
v 0.150000 0.279280 -0.150000
v 0.250000 0.279280 -0.150000
v 0.350000 0.279280 -0.150000
v -0.250000 0.279280 -0.250000
v -0.150000 0.279280 -0.250000
v -0.050000 0.279280 -0.250000
v 0.050000 0.279280 -0.250000
v 0.150000 0.279280 -0.250000
v 0.250000 0.279280 -0.250000
v -0.150000 0.279280 -0.350000
v 0.150000 0.279280 -0.350000
v -0.150000 0.379280 0.150000
v -0.050000 0.379280 0.150000
v 0.050000 0.379280 0.150000
v 0.150000 0.379280 0.150000
v -0.150000 0.379280 0.050000
v -0.050000 0.379280 0.050000
v 0.050000 0.379280 0.050000
v 0.150000 0.379280 0.050000
v -0.150000 0.379280 -0.050000
v -0.050000 0.379280 -0.050000
v 0.050000 0.379280 -0.050000
v 0.150000 0.379280 -0.050000
v -0.150000 0.379280 -0.150000
v -0.050000 0.379280 -0.150000
v 0.050000 0.379280 -0.150000
v 0.150000 0.379280 -0.150000
v -0.050000 0.479280 0.050000
v 0.050000 0.479280 0.050000
v -0.050000 0.479280 -0.050000
v 0.050000 0.479280 -0.050000
vn -1.0000 -0.0000 -0.0000
vn 1.0000 -0.0000 -0.0000
vn -0.0000 -0.0000 1.0000
vn -0.0000 -0.0000 -1.0000
vn -0.0000 -1.0000 -0.0000
vn -0.0000 1.0000 -0.0000
vt 0.126953 0.500000
vt 0.130859 0.500000
vt 0.134766 0.500000
vt 0.099609 0.500000
s 0
usemtl palette.032
f 4/1/1 2/1/1 1/1/1
f 5/1/1 2/1/1 4/1/1
f 7/1/1 4/1/1 3/1/1
f 7/1/1 6/1/1 5/1/1
f 7/1/1 5/1/1 4/1/1
f 8/1/1 6/1/1 7/1/1
f 9/1/1 6/1/1 8/1/1
f 10/1/1 6/1/1 9/1/1
f 11/1/1 9/1/1 8/1/1
f 12/1/1 9/1/1 11/1/1
f 18/1/1 14/1/1 13/1/1
f 19/1/1 14/1/1 18/1/1
f 20/1/1 16/1/1 15/1/1
f 21/1/1 16/1/1 20/1/1
f 23/1/1 18/1/1 17/1/1
f 24/1/1 18/1/1 23/1/1
f 27/1/1 22/1/1 21/1/1
f 28/1/1 22/1/1 27/1/1
f 29/1/1 25/1/1 24/1/1
f 30/1/1 25/1/1 29/1/1
f 31/1/1 27/1/1 26/1/1
f 32/1/1 27/1/1 31/1/1
f 39/2/1 34/2/1 33/2/1
f 40/1/1 35/1/1 34/1/1
f 40/2/1 34/2/1 39/2/1
f 41/2/1 36/2/1 35/2/1
f 41/1/1 35/1/1 40/1/1
f 42/2/1 36/2/1 41/2/1
f 45/1/1 38/1/1 37/1/1
f 46/1/1 38/1/1 45/1/1
f 47/1/1 44/1/1 43/1/1
f 48/1/1 44/1/1 47/1/1
f 53/1/1 50/1/1 49/1/1
f 54/1/1 50/1/1 53/1/1
f 59/1/1 52/1/1 51/1/1
f 60/1/1 52/1/1 59/1/1
f 61/1/1 56/1/1 55/1/1
f 62/2/1 57/2/1 56/2/1
f 62/1/1 56/1/1 61/1/1
f 63/1/1 58/1/1 57/1/1
f 63/2/1 57/2/1 62/2/1
f 64/1/1 58/1/1 63/1/1
f 67/3/1 66/3/1 65/3/1
f 68/3/1 66/3/1 67/3/1
f 69/3/2 70/3/2 71/3/2
f 71/3/2 70/3/2 72/3/2
f 73/2/2 74/2/2 79/2/2
f 74/1/2 75/1/2 80/1/2
f 79/2/2 74/2/2 80/2/2
f 75/2/2 76/2/2 81/2/2
f 80/1/2 75/1/2 81/1/2
f 81/2/2 76/2/2 82/2/2
f 77/1/2 78/1/2 85/1/2
f 85/1/2 78/1/2 86/1/2
f 83/1/2 84/1/2 87/1/2
f 87/1/2 84/1/2 88/1/2
f 89/1/2 90/1/2 93/1/2
f 93/1/2 90/1/2 94/1/2
f 91/1/2 92/1/2 99/1/2
f 99/1/2 92/1/2 100/1/2
f 95/1/2 96/1/2 101/1/2
f 96/2/2 97/2/2 102/2/2
f 101/1/2 96/1/2 102/1/2
f 97/1/2 98/1/2 103/1/2
f 102/2/2 97/2/2 103/2/2
f 103/1/2 98/1/2 104/1/2
f 105/1/2 106/1/2 110/1/2
f 110/1/2 106/1/2 111/1/2
f 107/1/2 108/1/2 112/1/2
f 112/1/2 108/1/2 113/1/2
f 109/1/2 110/1/2 115/1/2
f 115/1/2 110/1/2 116/1/2
f 113/1/2 114/1/2 119/1/2
f 119/1/2 114/1/2 120/1/2
f 116/1/2 117/1/2 121/1/2
f 121/1/2 117/1/2 122/1/2
f 118/1/2 119/1/2 123/1/2
f 123/1/2 119/1/2 124/1/2
f 125/1/2 126/1/2 128/1/2
f 128/1/2 126/1/2 129/1/2
f 127/1/2 128/1/2 131/1/2
f 129/1/2 130/1/2 131/1/2
f 128/1/2 129/1/2 131/1/2
f 131/1/2 130/1/2 132/1/2
f 132/1/2 130/1/2 133/1/2
f 133/1/2 130/1/2 134/1/2
f 132/1/2 133/1/2 135/1/2
f 135/1/2 133/1/2 136/1/2
f 140/1/3 138/1/3 137/1/3
f 141/1/3 138/1/3 140/1/3
f 143/1/3 140/1/3 139/1/3
f 143/1/3 142/1/3 141/1/3
f 143/1/3 141/1/3 140/1/3
f 144/1/3 142/1/3 143/1/3
f 145/1/3 142/1/3 144/1/3
f 146/1/3 142/1/3 145/1/3
f 147/1/3 145/1/3 144/1/3
f 148/1/3 145/1/3 147/1/3
f 152/1/3 150/1/3 149/1/3
f 153/1/3 150/1/3 152/1/3
f 155/1/3 152/1/3 151/1/3
f 156/1/3 152/1/3 155/1/3
f 157/1/3 154/1/3 153/1/3
f 158/1/3 154/1/3 157/1/3
f 163/1/3 160/1/3 159/1/3
f 164/1/3 160/1/3 163/1/3
f 165/1/3 162/1/3 161/1/3
f 166/1/3 162/1/3 165/1/3
f 167/1/3 165/1/3 164/1/3
f 168/1/3 165/1/3 167/1/3
f 173/1/3 170/1/3 169/1/3
f 174/1/3 170/1/3 173/1/3
f 175/1/3 172/1/3 171/1/3
f 176/1/3 172/1/3 175/1/3
f 181/2/3 178/2/3 177/2/3
f 182/2/3 178/2/3 181/2/3
f 183/1/3 180/1/3 179/1/3
f 184/1/3 180/1/3 183/1/3
f 185/1/3 182/1/3 181/1/3
f 186/1/3 182/1/3 185/1/3
f 187/2/3 184/2/3 183/2/3
f 188/2/3 184/2/3 187/2/3
f 189/2/3 186/2/3 185/2/3
f 190/2/3 186/2/3 189/2/3
f 191/1/3 188/1/3 187/1/3
f 192/1/3 188/1/3 191/1/3
f 197/1/3 194/1/3 193/1/3
f 198/1/3 194/1/3 197/1/3
f 199/1/3 196/1/3 195/1/3
f 200/1/3 196/1/3 199/1/3
f 203/3/3 202/3/3 201/3/3
f 204/3/3 202/3/3 203/3/3
f 205/3/4 206/3/4 207/3/4
f 207/3/4 206/3/4 208/3/4
f 209/1/4 210/1/4 213/1/4
f 213/1/4 210/1/4 214/1/4
f 211/1/4 212/1/4 215/1/4
f 215/1/4 212/1/4 216/1/4
f 217/2/4 218/2/4 221/2/4
f 221/2/4 218/2/4 222/2/4
f 219/1/4 220/1/4 223/1/4
f 223/1/4 220/1/4 224/1/4
f 221/1/4 222/1/4 225/1/4
f 225/1/4 222/1/4 226/1/4
f 223/2/4 224/2/4 227/2/4
f 227/2/4 224/2/4 228/2/4
f 225/2/4 226/2/4 229/2/4
f 229/2/4 226/2/4 230/2/4
f 227/1/4 228/1/4 231/1/4
f 231/1/4 228/1/4 232/1/4
f 233/1/4 234/1/4 237/1/4
f 237/1/4 234/1/4 238/1/4
f 235/1/4 236/1/4 239/1/4
f 239/1/4 236/1/4 240/1/4
f 241/1/4 242/1/4 244/1/4
f 244/1/4 242/1/4 245/1/4
f 243/1/4 244/1/4 247/1/4
f 247/1/4 244/1/4 248/1/4
f 245/1/4 246/1/4 249/1/4
f 249/1/4 246/1/4 250/1/4
f 251/1/4 252/1/4 255/1/4
f 255/1/4 252/1/4 256/1/4
f 253/1/4 254/1/4 257/1/4
f 257/1/4 254/1/4 258/1/4
f 256/1/4 257/1/4 259/1/4
f 259/1/4 257/1/4 260/1/4
f 261/1/4 262/1/4 264/1/4
f 264/1/4 262/1/4 265/1/4
f 263/1/4 264/1/4 267/1/4
f 265/1/4 266/1/4 267/1/4
f 264/1/4 265/1/4 267/1/4
f 267/1/4 266/1/4 268/1/4
f 268/1/4 266/1/4 269/1/4
f 269/1/4 266/1/4 270/1/4
f 268/1/4 269/1/4 271/1/4
f 271/1/4 269/1/4 272/1/4
f 277/2/5 274/2/5 273/2/5
f 278/1/5 275/1/5 274/1/5
f 278/2/5 274/2/5 277/2/5
f 279/2/5 276/2/5 275/2/5
f 279/1/5 275/1/5 278/1/5
f 280/2/5 276/2/5 279/2/5
f 281/1/5 278/1/5 277/1/5
f 282/4/5 279/4/5 278/4/5
f 282/1/5 278/1/5 281/1/5
f 283/1/5 280/1/5 279/1/5
f 283/4/5 279/4/5 282/4/5
f 284/1/5 280/1/5 283/1/5
f 285/2/5 282/2/5 281/2/5
f 286/1/5 283/1/5 282/1/5
f 286/2/5 282/2/5 285/2/5
f 287/2/5 284/2/5 283/2/5
f 287/1/5 283/1/5 286/1/5
f 288/2/5 284/2/5 287/2/5
f 292/1/5 290/1/5 289/1/5
f 293/1/5 290/1/5 292/1/5
f 294/1/5 290/1/5 293/1/5
f 295/1/5 290/1/5 294/1/5
f 298/1/5 292/1/5 291/1/5
f 298/1/5 293/1/5 292/1/5
f 299/1/5 293/1/5 298/1/5
f 300/2/5 294/2/5 293/2/5
f 300/1/5 293/1/5 299/1/5
f 301/1/5 296/1/5 295/1/5
f 301/2/5 294/2/5 300/2/5
f 301/1/5 295/1/5 294/1/5
f 302/1/5 296/1/5 301/1/5
f 303/1/5 296/1/5 302/1/5
f 305/1/5 298/1/5 297/1/5
f 305/1/5 299/1/5 298/1/5
f 306/1/5 299/1/5 305/1/5
f 307/1/5 304/1/5 303/1/5
f 307/1/5 303/1/5 302/1/5
f 308/1/5 304/1/5 307/1/5
f 309/2/5 306/2/5 305/2/5
f 309/1/5 305/1/5 297/1/5
f 310/2/5 306/2/5 309/2/5
f 311/2/5 308/2/5 307/2/5
f 312/1/5 304/1/5 308/1/5
f 312/2/5 308/2/5 311/2/5
f 313/1/5 310/1/5 309/1/5
f 313/1/5 309/1/5 297/1/5
f 314/1/5 310/1/5 313/1/5
f 315/1/5 310/1/5 314/1/5
f 318/1/5 312/1/5 311/1/5
f 319/1/5 304/1/5 312/1/5
f 319/1/5 312/1/5 318/1/5
f 320/1/5 304/1/5 319/1/5
f 321/1/5 315/1/5 314/1/5
f 321/1/5 316/1/5 315/1/5
f 322/1/5 316/1/5 321/1/5
f 323/2/5 317/2/5 316/2/5
f 323/1/5 316/1/5 322/1/5
f 324/1/5 318/1/5 317/1/5
f 324/2/5 317/2/5 323/2/5
f 324/1/5 319/1/5 318/1/5
f 325/1/5 319/1/5 324/1/5
f 326/1/5 319/1/5 325/1/5
f 327/1/5 323/1/5 322/1/5
f 327/1/5 325/1/5 324/1/5
f 327/1/5 324/1/5 323/1/5
f 328/1/5 325/1/5 327/1/5
f 334/1/5 330/1/5 329/1/5
f 335/1/5 330/1/5 334/1/5
f 336/1/5 332/1/5 331/1/5
f 337/1/5 332/1/5 336/1/5
f 339/1/5 334/1/5 333/1/5
f 340/1/5 334/1/5 339/1/5
f 341/1/5 338/1/5 337/1/5
f 342/1/5 338/1/5 341/1/5
f 347/1/5 344/1/5 343/1/5
f 348/1/5 344/1/5 347/1/5
f 351/1/5 346/1/5 345/1/5
f 352/1/5 346/1/5 351/1/5
f 353/1/5 349/1/5 348/1/5
f 354/1/5 349/1/5 353/1/5
f 355/1/5 351/1/5 350/1/5
f 356/1/5 351/1/5 355/1/5
f 357/1/6 358/1/6 362/1/6
f 362/1/6 358/1/6 363/1/6
f 359/1/6 360/1/6 364/1/6
f 364/1/6 360/1/6 365/1/6
f 361/1/6 362/1/6 367/1/6
f 367/1/6 362/1/6 368/1/6
f 365/1/6 366/1/6 369/1/6
f 369/1/6 366/1/6 370/1/6
f 371/1/6 372/1/6 375/1/6
f 375/1/6 372/1/6 376/1/6
f 373/1/6 374/1/6 379/1/6
f 379/1/6 374/1/6 380/1/6
f 376/1/6 377/1/6 381/1/6
f 381/1/6 377/1/6 382/1/6
f 378/1/6 379/1/6 383/1/6
f 383/1/6 379/1/6 384/1/6
f 385/1/6 386/1/6 388/1/6
f 388/1/6 386/1/6 389/1/6
f 389/1/6 386/1/6 390/1/6
f 390/1/6 386/1/6 391/1/6
f 387/1/6 388/1/6 394/1/6
f 388/1/6 389/1/6 394/1/6
f 394/1/6 389/1/6 395/1/6
f 389/2/6 390/2/6 396/2/6
f 395/1/6 389/1/6 396/1/6
f 391/1/6 392/1/6 397/1/6
f 396/2/6 390/2/6 397/2/6
f 390/1/6 391/1/6 397/1/6
f 397/1/6 392/1/6 398/1/6
f 398/1/6 392/1/6 399/1/6
f 393/1/6 394/1/6 401/1/6
f 394/1/6 395/1/6 401/1/6
f 401/1/6 395/1/6 402/1/6
f 399/1/6 400/1/6 403/1/6
f 398/1/6 399/1/6 403/1/6
f 403/1/6 400/1/6 404/1/6
f 401/2/6 402/2/6 405/2/6
f 393/1/6 401/1/6 405/1/6
f 405/2/6 402/2/6 406/2/6
f 403/2/6 404/2/6 407/2/6
f 404/1/6 400/1/6 408/1/6
f 407/2/6 404/2/6 408/2/6
f 405/1/6 406/1/6 409/1/6
f 393/1/6 405/1/6 409/1/6
f 409/1/6 406/1/6 410/1/6
f 410/1/6 406/1/6 411/1/6
f 407/1/6 408/1/6 414/1/6
f 408/1/6 400/1/6 415/1/6
f 414/1/6 408/1/6 415/1/6
f 415/1/6 400/1/6 416/1/6
f 410/1/6 411/1/6 417/1/6
f 411/1/6 412/1/6 417/1/6
f 417/1/6 412/1/6 418/1/6
f 412/2/6 413/2/6 419/2/6
f 418/1/6 412/1/6 419/1/6
f 413/1/6 414/1/6 420/1/6
f 419/2/6 413/2/6 420/2/6
f 414/1/6 415/1/6 420/1/6
f 420/1/6 415/1/6 421/1/6
f 421/1/6 415/1/6 422/1/6
f 418/1/6 419/1/6 423/1/6
f 420/1/6 421/1/6 423/1/6
f 419/1/6 420/1/6 423/1/6
f 423/1/6 421/1/6 424/1/6
f 425/1/6 426/1/6 429/1/6
f 426/2/6 427/2/6 430/2/6
f 429/1/6 426/1/6 430/1/6
f 427/1/6 428/1/6 431/1/6
f 430/2/6 427/2/6 431/2/6
f 431/1/6 428/1/6 432/1/6
f 429/2/6 430/2/6 433/2/6
f 433/2/6 430/2/6 434/2/6
f 431/2/6 432/2/6 435/2/6
f 435/2/6 432/2/6 436/2/6
f 433/1/6 434/1/6 437/1/6
f 434/2/6 435/2/6 438/2/6
f 437/1/6 434/1/6 438/1/6
f 435/1/6 436/1/6 439/1/6
f 438/2/6 435/2/6 439/2/6
f 439/1/6 436/1/6 440/1/6
f 441/3/6 442/3/6 443/3/6
f 443/3/6 442/3/6 444/3/6
