# Blender 4.2.2 LTS
# www.blender.org
mtllib Orange-0.mtl
o Untitled
v 0.342693 -0.476346 -0.147115
v 0.342693 -0.476346 0.152885
v 0.342693 -0.376346 -0.247115
v 0.342693 -0.376346 -0.147115
v 0.342693 -0.376346 0.152885
v 0.342693 -0.376346 0.252885
v 0.342693 -0.276346 -0.347115
v 0.342693 -0.276346 -0.247115
v 0.342693 -0.276346 0.252885
v 0.342693 -0.276346 0.352885
v 0.342693 0.023654 -0.347115
v 0.342693 0.023654 -0.247115
v 0.342693 0.023654 0.252885
v 0.342693 0.023654 0.352885
v 0.342693 0.123654 -0.247116
v 0.342693 0.123654 -0.147115
v 0.342693 0.123654 0.152884
v 0.342693 0.123654 0.252885
v 0.342693 0.223654 -0.147115
v 0.342693 0.223654 0.152884
v 0.242693 -0.476346 -0.247115
v 0.242693 -0.476346 -0.147115
v 0.242693 -0.476346 0.152885
v 0.242693 -0.476346 0.252885
v 0.242693 -0.376346 -0.347115
v 0.242693 -0.376346 -0.247115
v 0.242693 -0.376346 -0.147115
v 0.242693 -0.376346 0.152885
v 0.242693 -0.376346 0.252885
v 0.242693 -0.376346 0.352885
v 0.242693 -0.276346 -0.347115
v 0.242693 -0.276346 -0.247115
v 0.242693 -0.276346 0.252885
v 0.242693 -0.276346 0.352885
v 0.242693 0.023654 -0.347115
v 0.242693 0.023654 -0.247115
v 0.242693 0.023654 0.252885
v 0.242693 0.023654 0.352885
v 0.242693 0.123654 -0.347115
v 0.242693 0.123654 -0.247116
v 0.242693 0.123654 -0.147115
v 0.242693 0.123654 0.152884
v 0.242693 0.123654 0.252885
v 0.242693 0.123654 0.352885
v 0.242693 0.223654 -0.247116
v 0.242693 0.223654 -0.147115
v 0.242693 0.223654 0.152884
v 0.242693 0.223654 0.252884
v 0.142693 -0.476346 -0.347115
v 0.142693 -0.476346 -0.247115
v 0.142693 -0.476346 0.252885
v 0.142693 -0.476346 0.352885
v 0.142693 -0.376346 -0.347115
v 0.142693 -0.376346 -0.247115
v 0.142693 -0.376346 0.252885
v 0.142693 -0.376346 0.352885
v 0.142693 0.123654 -0.347115
v 0.142693 0.123654 -0.247116
v 0.142693 0.123654 0.252885
v 0.142693 0.123654 0.352885
v 0.142693 0.223654 -0.347116
v 0.142693 0.223654 -0.247116
v 0.142693 0.223654 -0.147115
v 0.142693 0.223654 -0.047116
v 0.142693 0.223654 0.252884
v 0.142693 0.223654 0.352885
v 0.142693 0.323654 -0.247116
v 0.142693 0.323654 -0.147116
v 0.142693 0.323654 -0.047116
v 0.142693 0.423654 -0.247116
v 0.142693 0.423654 -0.147116
v 0.142693 0.423654 -0.047116
v 0.142693 0.423654 0.052884
v 0.142693 0.523654 -0.047116
v 0.142693 0.523654 0.052884
v 0.042693 0.223654 -0.047116
v 0.042693 0.223654 0.052885
v 0.042693 0.223654 0.152884
v 0.042693 0.323654 -0.047116
v 0.042693 0.323654 0.052884
v 0.042693 0.323654 0.152884
v 0.042693 0.423654 -0.047116
v 0.042693 0.423654 0.052884
v -0.057307 0.323654 0.052884
v -0.057307 0.323654 0.152884
v -0.057307 0.323654 0.252884
v -0.057307 0.423654 0.052884
v -0.057307 0.423654 0.252884
v 0.042693 0.323654 -0.247116
v 0.042693 0.323654 -0.147116
v 0.042693 0.423654 -0.247116
v 0.042693 0.423654 -0.147116
v 0.042693 0.423654 -0.047116
v 0.042693 0.423654 0.052884
v 0.042693 0.523654 -0.047116
v 0.042693 0.523654 0.052884
v -0.057307 0.223654 -0.147115
v -0.057307 0.223654 -0.047116
v -0.057307 0.223654 0.052885
v -0.057307 0.223654 0.152884
v -0.057307 0.323654 -0.147116
v -0.057307 0.323654 -0.047116
v -0.057307 0.323654 0.052884
v -0.057307 0.323654 0.152884
v -0.057307 0.423654 -0.047116
v -0.057307 0.423654 0.052884
v -0.157307 -0.476346 -0.347115
v -0.157307 -0.476346 -0.247115
v -0.157307 -0.476346 0.252885
v -0.157307 -0.476346 0.352885
v -0.157307 -0.376346 -0.347115
v -0.157307 -0.376346 -0.247115
v -0.157307 -0.376346 0.252885
v -0.157307 -0.376346 0.352885
v -0.157307 0.123654 -0.347115
v -0.157307 0.123654 -0.247116
v -0.157307 0.123654 0.252885
v -0.157307 0.123654 0.352885
v -0.157307 0.223654 -0.347116
v -0.157307 0.223654 -0.247116
v -0.157307 0.223654 0.252884
v -0.157307 0.223654 0.352885
v -0.157307 0.323654 0.052884
v -0.157307 0.323654 0.252884
v -0.157307 0.423654 0.052884
v -0.157307 0.423654 0.252884
v -0.257307 -0.476346 -0.247115
v -0.257307 -0.476346 -0.147115
v -0.257307 -0.476346 0.152885
v -0.257307 -0.476346 0.252885
v -0.257307 -0.376346 -0.347115
v -0.257307 -0.376346 -0.247115
v -0.257307 -0.376346 -0.147115
v -0.257307 -0.376346 0.152885
v -0.257307 -0.376346 0.252885
v -0.257307 -0.376346 0.352885
v -0.257307 -0.276346 -0.347115
v -0.257307 -0.276346 -0.247115
v -0.257307 -0.276346 0.252885
v -0.257307 -0.276346 0.352885
v -0.257307 0.023654 -0.347115
v -0.257307 0.023654 -0.247115
v -0.257307 0.023654 0.252885
v -0.257307 0.023654 0.352885
v -0.257307 0.123654 -0.347115
v -0.257307 0.123654 -0.247116
v -0.257307 0.123654 -0.147115
v -0.257307 0.123654 0.152884
v -0.257307 0.123654 0.252885
v -0.257307 0.123654 0.352885
v -0.257307 0.223654 -0.247116
v -0.257307 0.223654 -0.147115
v -0.257307 0.223654 0.152884
v -0.257307 0.223654 0.252884
v -0.357307 -0.476346 -0.147115
v -0.357307 -0.476346 0.152885
v -0.357307 -0.376346 -0.247115
v -0.357307 -0.376346 -0.147115
v -0.357307 -0.376346 0.152885
v -0.357307 -0.376346 0.252885
v -0.357307 -0.276346 -0.347115
v -0.357307 -0.276346 -0.247115
v -0.357307 -0.276346 0.252885
v -0.357307 -0.276346 0.352885
v -0.357307 0.023654 -0.347115
v -0.357307 0.023654 -0.247115
v -0.357307 0.023654 0.252885
v -0.357307 0.023654 0.352885
v -0.357307 0.123654 -0.247116
v -0.357307 0.123654 -0.147115
v -0.357307 0.123654 0.152884
v -0.357307 0.123654 0.252885
v -0.357307 0.223654 -0.147115
v -0.357307 0.223654 0.152884
v 0.342693 -0.276346 -0.347115
v 0.342693 0.023654 -0.347115
v 0.242693 -0.376346 -0.347115
v 0.242693 -0.276346 -0.347115
v 0.242693 0.023654 -0.347115
v 0.242693 0.123654 -0.347115
v 0.142693 -0.476346 -0.347115
v 0.142693 -0.376346 -0.347115
v 0.142693 0.123654 -0.347115
v 0.142693 0.223654 -0.347116
v -0.157307 -0.476346 -0.347115
v -0.157307 -0.376346 -0.347115
v -0.157307 0.123654 -0.347115
v -0.157307 0.223654 -0.347116
v -0.257307 -0.376346 -0.347115
v -0.257307 -0.276346 -0.347115
v -0.257307 0.023654 -0.347115
v -0.257307 0.123654 -0.347115
v -0.357307 -0.276346 -0.347115
v -0.357307 0.023654 -0.347115
v 0.342693 -0.376346 -0.247115
v 0.342693 -0.276346 -0.247115
v 0.342693 0.023654 -0.247115
v 0.342693 0.123654 -0.247116
v 0.242693 -0.476346 -0.247115
v 0.242693 -0.376346 -0.247115
v 0.242693 -0.276346 -0.247115
v 0.242693 0.023654 -0.247115
v 0.242693 0.123654 -0.247116
v 0.242693 0.223654 -0.247116
v 0.142693 -0.476346 -0.247115
v 0.142693 -0.376346 -0.247115
v 0.142693 0.123654 -0.247116
v 0.142693 0.223654 -0.247116
v 0.142693 0.323654 -0.247116
v 0.142693 0.423654 -0.247116
v 0.042693 0.323654 -0.247116
v 0.042693 0.423654 -0.247116
v -0.157307 -0.476346 -0.247115
v -0.157307 -0.376346 -0.247115
v -0.157307 0.123654 -0.247116
v -0.157307 0.223654 -0.247116
v -0.257307 -0.476346 -0.247115
v -0.257307 -0.376346 -0.247115
v -0.257307 -0.276346 -0.247115
v -0.257307 0.023654 -0.247115
v -0.257307 0.123654 -0.247116
v -0.257307 0.223654 -0.247116
v -0.357307 -0.376346 -0.247115
v -0.357307 -0.276346 -0.247115
v -0.357307 0.023654 -0.247115
v -0.357307 0.123654 -0.247116
v 0.342693 -0.476346 -0.147115
v 0.342693 -0.376346 -0.147115
v 0.342693 0.123654 -0.147115
v 0.342693 0.223654 -0.147115
v 0.242693 -0.476346 -0.147115
v 0.242693 -0.376346 -0.147115
v 0.242693 0.123654 -0.147115
v 0.242693 0.223654 -0.147115
v 0.142693 0.223654 -0.147115
v 0.142693 0.323654 -0.147116
v 0.042693 0.323654 -0.147116
v -0.057307 0.223654 -0.147115
v -0.057307 0.323654 -0.147116
v -0.257307 -0.476346 -0.147115
v -0.257307 -0.376346 -0.147115
v -0.257307 0.123654 -0.147115
v -0.257307 0.223654 -0.147115
v -0.357307 -0.476346 -0.147115
v -0.357307 -0.376346 -0.147115
v -0.357307 0.123654 -0.147115
v -0.357307 0.223654 -0.147115
v 0.142693 0.423654 -0.047116
v 0.142693 0.523654 -0.047116
v 0.042693 0.323654 -0.047116
v 0.042693 0.423654 -0.047116
v 0.042693 0.523654 -0.047116
v -0.057307 0.323654 -0.047116
v -0.057307 0.423654 -0.047116
v -0.057307 0.323654 0.052884
v -0.057307 0.423654 0.052884
v -0.157307 0.323654 0.052884
v -0.157307 0.423654 0.052884
v 0.142693 0.323654 -0.147116
v 0.142693 0.423654 -0.147116
v 0.042693 0.323654 -0.147116
v 0.042693 0.423654 -0.147116
v 0.142693 0.223654 -0.047116
v 0.142693 0.323654 -0.047116
v 0.042693 0.223654 -0.047116
v 0.042693 0.323654 -0.047116
v 0.142693 0.423654 0.052884
v 0.142693 0.523654 0.052884
v 0.042693 0.323654 0.052884
v 0.042693 0.423654 0.052884
v 0.042693 0.523654 0.052884
v -0.057307 0.323654 0.052884
v -0.057307 0.423654 0.052884
v 0.342693 -0.476346 0.152885
v 0.342693 -0.376346 0.152885
v 0.342693 0.123654 0.152884
v 0.342693 0.223654 0.152884
v 0.242693 -0.476346 0.152885
v 0.242693 -0.376346 0.152885
v 0.242693 0.123654 0.152884
v 0.242693 0.223654 0.152884
v 0.042693 0.223654 0.152884
v 0.042693 0.323654 0.152884
v -0.057307 0.223654 0.152884
v -0.057307 0.323654 0.152884
v -0.257307 -0.476346 0.152885
v -0.257307 -0.376346 0.152885
v -0.257307 0.123654 0.152884
v -0.257307 0.223654 0.152884
v -0.357307 -0.476346 0.152885
v -0.357307 -0.376346 0.152885
v -0.357307 0.123654 0.152884
v -0.357307 0.223654 0.152884
v 0.342693 -0.376346 0.252885
v 0.342693 -0.276346 0.252885
v 0.342693 0.023654 0.252885
v 0.342693 0.123654 0.252885
v 0.242693 -0.476346 0.252885
v 0.242693 -0.376346 0.252885
v 0.242693 -0.276346 0.252885
v 0.242693 0.023654 0.252885
v 0.242693 0.123654 0.252885
v 0.242693 0.223654 0.252884
v 0.142693 -0.476346 0.252885
v 0.142693 -0.376346 0.252885
v 0.142693 0.123654 0.252885
v 0.142693 0.223654 0.252884
v -0.057307 0.323654 0.252884
v -0.057307 0.423654 0.252884
v -0.157307 -0.476346 0.252885
v -0.157307 -0.376346 0.252885
v -0.157307 0.123654 0.252885
v -0.157307 0.223654 0.252884
v -0.157307 0.323654 0.252884
v -0.157307 0.423654 0.252884
v -0.257307 -0.476346 0.252885
v -0.257307 -0.376346 0.252885
v -0.257307 -0.276346 0.252885
v -0.257307 0.023654 0.252885
v -0.257307 0.123654 0.252885
v -0.257307 0.223654 0.252884
v -0.357307 -0.376346 0.252885
v -0.357307 -0.276346 0.252885
v -0.357307 0.023654 0.252885
v -0.357307 0.123654 0.252885
v 0.342693 -0.276346 0.352885
v 0.342693 0.023654 0.352885
v 0.242693 -0.376346 0.352885
v 0.242693 -0.276346 0.352885
v 0.242693 0.023654 0.352885
v 0.242693 0.123654 0.352885
v 0.142693 -0.476346 0.352885
v 0.142693 -0.376346 0.352885
v 0.142693 0.123654 0.352885
v 0.142693 0.223654 0.352885
v -0.157307 -0.476346 0.352885
v -0.157307 -0.376346 0.352885
v -0.157307 0.123654 0.352885
v -0.157307 0.223654 0.352885
v -0.257307 -0.376346 0.352885
v -0.257307 -0.276346 0.352885
v -0.257307 0.023654 0.352885
v -0.257307 0.123654 0.352885
v -0.357307 -0.276346 0.352885
v -0.357307 0.023654 0.352885
v 0.142693 -0.476346 -0.347115
v -0.157307 -0.476346 -0.347115
v 0.242693 -0.476346 -0.247115
v 0.142693 -0.476346 -0.247115
v -0.157307 -0.476346 -0.247115
v -0.257307 -0.476346 -0.247115
v 0.342693 -0.476346 -0.147115
v 0.242693 -0.476346 -0.147115
v -0.257307 -0.476346 -0.147115
v -0.357307 -0.476346 -0.147115
v 0.342693 -0.476346 0.152885
v 0.242693 -0.476346 0.152885
v -0.257307 -0.476346 0.152885
v -0.357307 -0.476346 0.152885
v 0.242693 -0.476346 0.252885
v 0.142693 -0.476346 0.252885
v -0.157307 -0.476346 0.252885
v -0.257307 -0.476346 0.252885
v 0.142693 -0.476346 0.352885
v -0.157307 -0.476346 0.352885
v 0.242693 -0.376346 -0.347115
v 0.142693 -0.376346 -0.347115
v -0.157307 -0.376346 -0.347115
v -0.257307 -0.376346 -0.347115
v 0.342693 -0.376346 -0.247115
v 0.242693 -0.376346 -0.247115
v 0.142693 -0.376346 -0.247115
v -0.157307 -0.376346 -0.247115
v -0.257307 -0.376346 -0.247115
v -0.357307 -0.376346 -0.247115
v 0.342693 -0.376346 -0.147115
v 0.242693 -0.376346 -0.147115
v -0.257307 -0.376346 -0.147115
v -0.357307 -0.376346 -0.147115
v 0.342693 -0.376346 0.152885
v 0.242693 -0.376346 0.152885
v -0.257307 -0.376346 0.152885
v -0.357307 -0.376346 0.152885
v 0.342693 -0.376346 0.252885
v 0.242693 -0.376346 0.252885
v 0.142693 -0.376346 0.252885
v -0.157307 -0.376346 0.252885
v -0.257307 -0.376346 0.252885
v -0.357307 -0.376346 0.252885
v 0.242693 -0.376346 0.352885
v 0.142693 -0.376346 0.352885
v -0.157307 -0.376346 0.352885
v -0.257307 -0.376346 0.352885
v 0.342693 -0.276346 -0.347115
v 0.242693 -0.276346 -0.347115
v -0.257307 -0.276346 -0.347115
v -0.357307 -0.276346 -0.347115
v 0.342693 -0.276346 -0.247115
v 0.242693 -0.276346 -0.247115
v -0.257307 -0.276346 -0.247115
v -0.357307 -0.276346 -0.247115
v 0.342693 -0.276346 0.252885
v 0.242693 -0.276346 0.252885
v -0.257307 -0.276346 0.252885
v -0.357307 -0.276346 0.252885
v 0.342693 -0.276346 0.352885
v 0.242693 -0.276346 0.352885
v -0.257307 -0.276346 0.352885
v -0.357307 -0.276346 0.352885
v 0.142693 0.323654 -0.247116
v 0.042693 0.323654 -0.247116
v 0.142693 0.323654 -0.147116
v 0.042693 0.323654 -0.147116
v -0.057307 0.323654 0.052884
v -0.157307 0.323654 0.052884
v -0.057307 0.323654 0.152884
v -0.057307 0.323654 0.252884
v -0.157307 0.323654 0.252884
v 0.142693 0.423654 -0.047116
v 0.042693 0.423654 -0.047116
v 0.142693 0.423654 0.052884
v 0.042693 0.423654 0.052884
v 0.342693 0.023654 -0.347115
v 0.242693 0.023654 -0.347115
v -0.257307 0.023654 -0.347115
v -0.357307 0.023654 -0.347115
v 0.342693 0.023654 -0.247115
v 0.242693 0.023654 -0.247115
v -0.257307 0.023654 -0.247115
v -0.357307 0.023654 -0.247115
v 0.342693 0.023654 0.252885
v 0.242693 0.023654 0.252885
v -0.257307 0.023654 0.252885
v -0.357307 0.023654 0.252885
v 0.342693 0.023654 0.352885
v 0.242693 0.023654 0.352885
v -0.257307 0.023654 0.352885
v -0.357307 0.023654 0.352885
v 0.242693 0.123654 -0.347115
v 0.142693 0.123654 -0.347115
v -0.157307 0.123654 -0.347115
v -0.257307 0.123654 -0.347115
v 0.342693 0.123654 -0.247116
v 0.242693 0.123654 -0.247116
v 0.142693 0.123654 -0.247116
v -0.157307 0.123654 -0.247116
v -0.257307 0.123654 -0.247116
v -0.357307 0.123654 -0.247116
v 0.342693 0.123654 -0.147115
v 0.242693 0.123654 -0.147115
v -0.257307 0.123654 -0.147115
v -0.357307 0.123654 -0.147115
v 0.342693 0.123654 0.152884
v 0.242693 0.123654 0.152884
v -0.257307 0.123654 0.152884
v -0.357307 0.123654 0.152884
v 0.342693 0.123654 0.252885
v 0.242693 0.123654 0.252885
v 0.142693 0.123654 0.252885
v -0.157307 0.123654 0.252885
v -0.257307 0.123654 0.252885
v -0.357307 0.123654 0.252885
v 0.242693 0.123654 0.352885
v 0.142693 0.123654 0.352885
v -0.157307 0.123654 0.352885
v -0.257307 0.123654 0.352885
v 0.142693 0.223654 -0.347116
v -0.157307 0.223654 -0.347116
v 0.242693 0.223654 -0.247116
v 0.142693 0.223654 -0.247116
v -0.157307 0.223654 -0.247116
v -0.257307 0.223654 -0.247116
v 0.342693 0.223654 -0.147115
v 0.242693 0.223654 -0.147115
v 0.142693 0.223654 -0.147115
v -0.057307 0.223654 -0.147115
v -0.257307 0.223654 -0.147115
v -0.357307 0.223654 -0.147115
v 0.142693 0.223654 -0.047116
v 0.042693 0.223654 -0.047116
v -0.057307 0.223654 -0.047116
v 0.042693 0.223654 0.052885
v -0.057307 0.223654 0.052885
v 0.342693 0.223654 0.152884
v 0.242693 0.223654 0.152884
v 0.042693 0.223654 0.152884
v -0.057307 0.223654 0.152884
v -0.257307 0.223654 0.152884
v -0.357307 0.223654 0.152884
v 0.242693 0.223654 0.252884
v 0.142693 0.223654 0.252884
v -0.157307 0.223654 0.252884
v -0.257307 0.223654 0.252884
v 0.142693 0.223654 0.352885
v -0.157307 0.223654 0.352885
v 0.142693 0.323654 -0.147116
v 0.042693 0.323654 -0.147116
v -0.057307 0.323654 -0.147116
v 0.142693 0.323654 -0.047116
v 0.042693 0.323654 -0.047116
v -0.057307 0.323654 -0.047116
v 0.042693 0.323654 0.052884
v -0.057307 0.323654 0.052884
v 0.042693 0.323654 0.152884
v -0.057307 0.323654 0.152884
v 0.142693 0.423654 -0.247116
v 0.042693 0.423654 -0.247116
v 0.142693 0.423654 -0.147116
v 0.042693 0.423654 -0.147116
v 0.042693 0.423654 -0.047116
v -0.057307 0.423654 -0.047116
v 0.042693 0.423654 0.052884
v -0.057307 0.423654 0.052884
v -0.157307 0.423654 0.052884
v -0.057307 0.423654 0.252884
v -0.157307 0.423654 0.252884
v 0.142693 0.523654 -0.047116
v 0.042693 0.523654 -0.047116
v 0.142693 0.523654 0.052884
v 0.042693 0.523654 0.052884
vn 1.0000 -0.0000 -0.0000
vn -1.0000 -0.0000 -0.0000
vn -0.0000 -0.0000 -1.0000
vn -0.0000 -0.0000 1.0000
vn -0.0000 -1.0000 -0.0000
vn -0.0000 1.0000 -0.0000
vt 0.033203 0.500000
vt 0.013672 0.500000
vt 0.021484 0.500000
s 0
usemtl palette.033
f 4/1/1 2/1/1 1/1/1
f 5/1/1 2/1/1 4/1/1
f 8/1/1 4/1/1 3/1/1
f 8/1/1 6/1/1 5/1/1
f 8/1/1 5/1/1 4/1/1
f 9/1/1 6/1/1 8/1/1
f 11/1/1 8/1/1 7/1/1
f 11/1/1 10/1/1 9/1/1
f 11/1/1 9/1/1 8/1/1
f 12/1/1 10/1/1 11/1/1
f 13/1/1 10/1/1 12/1/1
f 14/1/1 10/1/1 13/1/1
f 15/1/1 13/1/1 12/1/1
f 16/1/1 13/1/1 15/1/1
f 17/1/1 13/1/1 16/1/1
f 18/1/1 13/1/1 17/1/1
f 19/1/1 17/1/1 16/1/1
f 20/1/1 17/1/1 19/1/1
f 26/1/1 22/1/1 21/1/1
f 27/1/1 22/1/1 26/1/1
f 28/1/1 24/1/1 23/1/1
f 29/1/1 24/1/1 28/1/1
f 31/1/1 26/1/1 25/1/1
f 32/1/1 26/1/1 31/1/1
f 33/1/1 30/1/1 29/1/1
f 34/1/1 30/1/1 33/1/1
f 39/1/1 36/1/1 35/1/1
f 40/1/1 36/1/1 39/1/1
f 43/1/1 38/1/1 37/1/1
f 44/1/1 38/1/1 43/1/1
f 45/1/1 41/1/1 40/1/1
f 46/1/1 41/1/1 45/1/1
f 47/1/1 43/1/1 42/1/1
f 48/1/1 43/1/1 47/1/1
f 53/1/1 50/1/1 49/1/1
f 54/1/1 50/1/1 53/1/1
f 55/1/1 52/1/1 51/1/1
f 56/1/1 52/1/1 55/1/1
f 61/1/1 58/1/1 57/1/1
f 62/1/1 58/1/1 61/1/1
f 65/1/1 60/1/1 59/1/1
f 66/1/1 60/1/1 65/1/1
f 68/2/1 64/2/1 63/2/1
f 69/2/1 64/2/1 68/2/1
f 70/2/1 68/2/1 67/2/1
f 71/2/1 68/2/1 70/2/1
f 74/3/1 73/3/1 72/3/1
f 75/3/1 73/3/1 74/3/1
f 79/3/1 77/3/1 76/3/1
f 80/2/1 78/2/1 77/2/1
f 80/3/1 77/3/1 79/3/1
f 81/2/1 78/2/1 80/2/1
f 82/3/1 80/3/1 79/3/1
f 83/3/1 80/3/1 82/3/1
f 87/2/1 85/2/1 84/2/1
f 87/2/1 86/2/1 85/2/1
f 88/2/1 86/2/1 87/2/1
f 89/2/2 90/2/2 91/2/2
f 91/2/2 90/2/2 92/2/2
f 93/3/2 94/3/2 95/3/2
f 95/3/2 94/3/2 96/3/2
f 97/2/2 98/2/2 101/2/2
f 98/3/2 99/3/2 102/3/2
f 101/2/2 98/2/2 102/2/2
f 99/2/2 100/2/2 103/2/2
f 102/3/2 99/3/2 103/3/2
f 103/2/2 100/2/2 104/2/2
f 102/3/2 103/3/2 105/3/2
f 105/3/2 103/3/2 106/3/2
f 107/1/2 108/1/2 111/1/2
f 111/1/2 108/1/2 112/1/2
f 109/1/2 110/1/2 113/1/2
f 113/1/2 110/1/2 114/1/2
f 115/1/2 116/1/2 119/1/2
f 119/1/2 116/1/2 120/1/2
f 117/1/2 118/1/2 121/1/2
f 121/1/2 118/1/2 122/1/2
f 123/2/2 124/2/2 125/2/2
f 125/2/2 124/2/2 126/2/2
f 127/1/2 128/1/2 132/1/2
f 132/1/2 128/1/2 133/1/2
f 129/1/2 130/1/2 134/1/2
f 134/1/2 130/1/2 135/1/2
f 131/1/2 132/1/2 137/1/2
f 137/1/2 132/1/2 138/1/2
f 135/1/2 136/1/2 139/1/2
f 139/1/2 136/1/2 140/1/2
f 141/1/2 142/1/2 145/1/2
f 145/1/2 142/1/2 146/1/2
f 143/1/2 144/1/2 149/1/2
f 149/1/2 144/1/2 150/1/2
f 146/1/2 147/1/2 151/1/2
f 151/1/2 147/1/2 152/1/2
f 148/1/2 149/1/2 153/1/2
f 153/1/2 149/1/2 154/1/2
f 155/1/2 156/1/2 158/1/2
f 158/1/2 156/1/2 159/1/2
f 157/1/2 158/1/2 162/1/2
f 159/1/2 160/1/2 162/1/2
f 158/1/2 159/1/2 162/1/2
f 162/1/2 160/1/2 163/1/2
f 161/1/2 162/1/2 165/1/2
f 163/1/2 164/1/2 165/1/2
f 162/1/2 163/1/2 165/1/2
f 165/1/2 164/1/2 166/1/2
f 166/1/2 164/1/2 167/1/2
f 167/1/2 164/1/2 168/1/2
f 166/1/2 167/1/2 169/1/2
f 169/1/2 167/1/2 170/1/2
f 170/1/2 167/1/2 171/1/2
f 171/1/2 167/1/2 172/1/2
f 170/1/2 171/1/2 173/1/2
f 173/1/2 171/1/2 174/1/2
f 178/1/3 176/1/3 175/1/3
f 179/1/3 176/1/3 178/1/3
f 182/1/3 178/1/3 177/1/3
f 182/1/3 180/1/3 179/1/3
f 182/1/3 179/1/3 178/1/3
f 183/1/3 180/1/3 182/1/3
f 185/1/3 182/1/3 181/1/3
f 185/1/3 184/1/3 183/1/3
f 185/1/3 183/1/3 182/1/3
f 186/1/3 184/1/3 185/1/3
f 187/1/3 184/1/3 186/1/3
f 188/1/3 184/1/3 187/1/3
f 189/1/3 187/1/3 186/1/3
f 190/1/3 187/1/3 189/1/3
f 191/1/3 187/1/3 190/1/3
f 192/1/3 187/1/3 191/1/3
f 193/1/3 191/1/3 190/1/3
f 194/1/3 191/1/3 193/1/3
f 200/1/3 196/1/3 195/1/3
f 201/1/3 196/1/3 200/1/3
f 202/1/3 198/1/3 197/1/3
f 203/1/3 198/1/3 202/1/3
f 205/1/3 200/1/3 199/1/3
f 206/1/3 200/1/3 205/1/3
f 207/1/3 204/1/3 203/1/3
f 208/1/3 204/1/3 207/1/3
f 211/2/3 210/2/3 209/2/3
f 212/2/3 210/2/3 211/2/3
f 217/1/3 214/1/3 213/1/3
f 218/1/3 214/1/3 217/1/3
f 221/1/3 216/1/3 215/1/3
f 222/1/3 216/1/3 221/1/3
f 223/1/3 219/1/3 218/1/3
f 224/1/3 219/1/3 223/1/3
f 225/1/3 221/1/3 220/1/3
f 226/1/3 221/1/3 225/1/3
f 231/1/3 228/1/3 227/1/3
f 232/1/3 228/1/3 231/1/3
f 233/1/3 230/1/3 229/1/3
f 234/1/3 230/1/3 233/1/3
f 237/2/3 236/2/3 235/2/3
f 238/2/3 237/2/3 235/2/3
f 239/2/3 237/2/3 238/2/3
f 244/1/3 241/1/3 240/1/3
f 245/1/3 241/1/3 244/1/3
f 246/1/3 243/1/3 242/1/3
f 247/1/3 243/1/3 246/1/3
f 251/3/3 249/3/3 248/3/3
f 252/3/3 249/3/3 251/3/3
f 253/3/3 251/3/3 250/3/3
f 254/3/3 251/3/3 253/3/3
f 257/2/3 256/2/3 255/2/3
f 258/2/3 256/2/3 257/2/3
f 259/2/4 260/2/4 261/2/4
f 261/2/4 260/2/4 262/2/4
f 263/2/4 264/2/4 265/2/4
f 265/2/4 264/2/4 266/2/4
f 267/3/4 268/3/4 270/3/4
f 270/3/4 268/3/4 271/3/4
f 269/3/4 270/3/4 272/3/4
f 272/3/4 270/3/4 273/3/4
f 274/1/4 275/1/4 278/1/4
f 278/1/4 275/1/4 279/1/4
f 276/1/4 277/1/4 280/1/4
f 280/1/4 277/1/4 281/1/4
f 282/2/4 283/2/4 284/2/4
f 284/2/4 283/2/4 285/2/4
f 286/1/4 287/1/4 290/1/4
f 290/1/4 287/1/4 291/1/4
f 288/1/4 289/1/4 292/1/4
f 292/1/4 289/1/4 293/1/4
f 294/1/4 295/1/4 299/1/4
f 299/1/4 295/1/4 300/1/4
f 296/1/4 297/1/4 301/1/4
f 301/1/4 297/1/4 302/1/4
f 298/1/4 299/1/4 304/1/4
f 304/1/4 299/1/4 305/1/4
f 302/1/4 303/1/4 306/1/4
f 306/1/4 303/1/4 307/1/4
f 308/2/4 309/2/4 314/2/4
f 314/2/4 309/2/4 315/2/4
f 310/1/4 311/1/4 316/1/4
f 316/1/4 311/1/4 317/1/4
f 312/1/4 313/1/4 320/1/4
f 320/1/4 313/1/4 321/1/4
f 317/1/4 318/1/4 322/1/4
f 322/1/4 318/1/4 323/1/4
f 319/1/4 320/1/4 324/1/4
f 324/1/4 320/1/4 325/1/4
f 326/1/4 327/1/4 329/1/4
f 329/1/4 327/1/4 330/1/4
f 328/1/4 329/1/4 333/1/4
f 330/1/4 331/1/4 333/1/4
f 329/1/4 330/1/4 333/1/4
f 333/1/4 331/1/4 334/1/4
f 332/1/4 333/1/4 336/1/4
f 334/1/4 335/1/4 336/1/4
f 333/1/4 334/1/4 336/1/4
f 336/1/4 335/1/4 337/1/4
f 337/1/4 335/1/4 338/1/4
f 338/1/4 335/1/4 339/1/4
f 337/1/4 338/1/4 340/1/4
f 340/1/4 338/1/4 341/1/4
f 341/1/4 338/1/4 342/1/4
f 342/1/4 338/1/4 343/1/4
f 341/1/4 342/1/4 344/1/4
f 344/1/4 342/1/4 345/1/4
f 349/1/5 347/1/5 346/1/5
f 350/1/5 347/1/5 349/1/5
f 353/1/5 349/1/5 348/1/5
f 353/1/5 351/1/5 350/1/5
f 353/1/5 350/1/5 349/1/5
f 354/1/5 351/1/5 353/1/5
f 356/1/5 353/1/5 352/1/5
f 356/1/5 355/1/5 354/1/5
f 356/1/5 354/1/5 353/1/5
f 357/1/5 355/1/5 356/1/5
f 358/1/5 355/1/5 357/1/5
f 359/1/5 355/1/5 358/1/5
f 360/1/5 358/1/5 357/1/5
f 361/1/5 358/1/5 360/1/5
f 362/1/5 358/1/5 361/1/5
f 363/1/5 358/1/5 362/1/5
f 364/1/5 362/1/5 361/1/5
f 365/1/5 362/1/5 364/1/5
f 371/1/5 367/1/5 366/1/5
f 372/1/5 367/1/5 371/1/5
f 373/1/5 369/1/5 368/1/5
f 374/1/5 369/1/5 373/1/5
f 376/1/5 371/1/5 370/1/5
f 377/1/5 371/1/5 376/1/5
f 378/1/5 375/1/5 374/1/5
f 379/1/5 375/1/5 378/1/5
f 384/1/5 381/1/5 380/1/5
f 385/1/5 381/1/5 384/1/5
f 388/1/5 383/1/5 382/1/5
f 389/1/5 383/1/5 388/1/5
f 390/1/5 386/1/5 385/1/5
f 391/1/5 386/1/5 390/1/5
f 392/1/5 388/1/5 387/1/5
f 393/1/5 388/1/5 392/1/5
f 398/1/5 395/1/5 394/1/5
f 399/1/5 395/1/5 398/1/5
f 400/1/5 397/1/5 396/1/5
f 401/1/5 397/1/5 400/1/5
f 406/1/5 403/1/5 402/1/5
f 407/1/5 403/1/5 406/1/5
f 408/1/5 405/1/5 404/1/5
f 409/1/5 405/1/5 408/1/5
f 412/2/5 411/2/5 410/2/5
f 413/2/5 411/2/5 412/2/5
f 416/2/5 415/2/5 414/2/5
f 417/2/5 415/2/5 416/2/5
f 418/2/5 415/2/5 417/2/5
f 421/3/5 420/3/5 419/3/5
f 422/3/5 420/3/5 421/3/5
f 423/1/6 424/1/6 427/1/6
f 427/1/6 424/1/6 428/1/6
f 425/1/6 426/1/6 429/1/6
f 429/1/6 426/1/6 430/1/6
f 431/1/6 432/1/6 435/1/6
f 435/1/6 432/1/6 436/1/6
f 433/1/6 434/1/6 437/1/6
f 437/1/6 434/1/6 438/1/6
f 439/1/6 440/1/6 444/1/6
f 444/1/6 440/1/6 445/1/6
f 441/1/6 442/1/6 446/1/6
f 446/1/6 442/1/6 447/1/6
f 443/1/6 444/1/6 449/1/6
f 449/1/6 444/1/6 450/1/6
f 447/1/6 448/1/6 451/1/6
f 451/1/6 448/1/6 452/1/6
f 453/1/6 454/1/6 457/1/6
f 457/1/6 454/1/6 458/1/6
f 455/1/6 456/1/6 461/1/6
f 461/1/6 456/1/6 462/1/6
f 458/1/6 459/1/6 463/1/6
f 463/1/6 459/1/6 464/1/6
f 460/1/6 461/1/6 465/1/6
f 465/1/6 461/1/6 466/1/6
f 467/1/6 468/1/6 470/1/6
f 470/1/6 468/1/6 471/1/6
f 469/1/6 470/1/6 474/1/6
f 471/1/6 472/1/6 474/1/6
f 470/1/6 471/1/6 474/1/6
f 474/1/6 472/1/6 475/1/6
f 475/1/6 472/1/6 476/1/6
f 476/1/6 472/1/6 477/1/6
f 473/1/6 474/1/6 479/1/6
f 474/1/6 475/1/6 479/1/6
f 477/1/6 478/1/6 481/1/6
f 476/1/6 477/1/6 481/1/6
f 479/1/6 480/1/6 482/1/6
f 481/1/6 478/1/6 483/1/6
f 479/1/6 482/1/6 484/1/6
f 473/1/6 479/1/6 484/1/6
f 484/1/6 482/1/6 485/1/6
f 485/1/6 482/1/6 486/1/6
f 483/1/6 478/1/6 487/1/6
f 487/1/6 478/1/6 488/1/6
f 488/1/6 478/1/6 489/1/6
f 485/1/6 486/1/6 490/1/6
f 487/1/6 488/1/6 490/1/6
f 486/1/6 487/1/6 490/1/6
f 490/1/6 488/1/6 491/1/6
f 491/1/6 488/1/6 492/1/6
f 492/1/6 488/1/6 493/1/6
f 491/1/6 492/1/6 494/1/6
f 494/1/6 492/1/6 495/1/6
f 496/2/6 497/2/6 499/2/6
f 497/2/6 498/2/6 499/2/6
f 499/2/6 498/2/6 500/2/6
f 500/2/6 498/2/6 501/2/6
f 502/2/6 503/2/6 504/2/6
f 504/2/6 503/2/6 505/2/6
f 506/2/6 507/2/6 508/2/6
f 508/2/6 507/2/6 509/2/6
f 510/3/6 511/3/6 512/3/6
f 512/3/6 511/3/6 513/3/6
f 513/2/6 514/2/6 515/2/6
f 515/2/6 514/2/6 516/2/6
f 517/3/6 518/3/6 519/3/6
f 519/3/6 518/3/6 520/3/6
