{
	"asset":{
		"generator":"Khronos glTF Blender I/O v3.6.27",
		"version":"2.0"
	},
	"scene":0,
	"scenes":[
		{
			"name":"Scene",
			"nodes":[
				34
			]
		}
	],
	"nodes":[
		{
			"name":"Target.L",
			"rotation":[
				-0.7071067690849304,
				0,
				0,
				0.7071067690849304
			],
			"translation":[
				0.12303543090820312,
				0.12294194102287292,
				-0.1075277328491211
			]
		},
		{
			"name":"Target.R",
			"rotation":[
				-0.7071067690849304,
				0,
				0,
				0.7071067690849304
			],
			"translation":[
				-0.12303543090820312,
				0.12294194102287292,
				-0.1075277328491211
			]
		},
		{
			"name":"Head",
			"rotation":[
				0.06566912680864334,
				5.0334026724385694e-08,
				7.226725884379448e-09,
				0.997841477394104
			],
			"scale":[
				1,
				0.9999998807907104,
				1
			],
			"translation":[
				3.7448495504577295e-07,
				0.07081335783004761,
				1.9940307538490742e-07
			]
		},
		{
			"children":[
				2
			],
			"name":"Neck",
			"rotation":[
				0.076264388859272,
				-5.2002185668698075e-08,
				8.523210581756757e-09,
				0.9970876574516296
			],
			"scale":[
				1,
				1,
				0.9999999403953552
			],
			"translation":[
				-2.8157296583231073e-06,
				0.2047657072544098,
				-8.411766430072021e-07
			]
		},
		{
			"name":"Finger2.L",
			"rotation":[
				0.019995639100670815,
				-0.0071483212523162365,
				-0.10373338311910629,
				0.9943784475326538
			],
			"scale":[
				1.0000001192092896,
				1,
				1.0000001192092896
			],
			"translation":[
				-3.712880811690411e-07,
				0.07593098282814026,
				-5.327165126800537e-07
			]
		},
		{
			"children":[
				4
			],
			"name":"Finger1.L",
			"rotation":[
				-0.00028676370857283473,
				-0.011064560152590275,
				-0.22567233443260193,
				0.9741404056549072
			],
			"scale":[
				1,
				0.9999999403953552,
				0.9999998807907104
			],
			"translation":[
				-5.7315646699862555e-06,
				0.09378081560134888,
				5.997717380523682e-07
			]
		},
		{
			"name":"Thumb2.L",
			"rotation":[
				-0.2125692218542099,
				0.04583660885691643,
				0.14660868048667908,
				0.9649969935417175
			],
			"translation":[
				-2.802499011522741e-06,
				0.06008946895599365,
				1.0132789611816406e-06
			]
		},
		{
			"children":[
				6
			],
			"name":"Thumb1.L",
			"rotation":[
				0.2223534882068634,
				-0.08429455757141113,
				-0.28818953037261963,
				0.9275776147842407
			],
			"scale":[
				0.9999999403953552,
				1,
				0.9999998807907104
			],
			"translation":[
				0.007551581133157015,
				0.026228278875350952,
				0.04680885002017021
			]
		},
		{
			"children":[
				5,
				7
			],
			"name":"Hand.L",
			"rotation":[
				-0.04276987165212631,
				-0.005293873604387045,
				-0.05729284882545471,
				0.9974268078804016
			],
			"scale":[
				0.9999999403953552,
				1,
				1
			],
			"translation":[
				-2.544380777180777e-07,
				0.28836557269096375,
				2.980232238769531e-07
			]
		},
		{
			"children":[
				8
			],
			"name":"LowerArm.L",
			"rotation":[
				-0.030452515929937363,
				-0.013049045577645302,
				-0.0781034529209137,
				0.9963946342468262
			],
			"scale":[
				1.0000001192092896,
				1,
				0.9999999403953552
			],
			"translation":[
				-2.1208204543654574e-06,
				0.22194278240203857,
				-4.917383193969727e-07
			]
		},
		{
			"children":[
				9
			],
			"name":"UpperArm.L",
			"rotation":[
				0.04296807944774628,
				-0.07635790854692459,
				-0.5209567546844482,
				0.8490743637084961
			],
			"scale":[
				0.9999999403953552,
				0.9999998807907104,
				0.9999999403953552
			],
			"translation":[
				6.982868399063591e-07,
				0.1554078757762909,
				1.2293457984924316e-07
			]
		},
		{
			"children":[
				10
			],
			"name":"Clavicle.L",
			"rotation":[
				0.03592308238148689,
				-0.02742830477654934,
				-0.8076550364494324,
				0.5879206657409668
			],
			"scale":[
				0.9999999403953552,
				0.9999999403953552,
				1
			],
			"translation":[
				0.04630379378795624,
				0.15289130806922913,
				-0.0014058863744139671
			]
		},
		{
			"name":"Finger2.R",
			"rotation":[
				0.019995640963315964,
				0.0071483189240098,
				0.1037333756685257,
				0.9943784475326538
			],
			"scale":[
				0.9999998211860657,
				0.9999998211860657,
				0.9999998211860657
			],
			"translation":[
				1.205753051181091e-06,
				0.07593077421188354,
				6.891787052154541e-07
			]
		},
		{
			"children":[
				12
			],
			"name":"Finger1.R",
			"rotation":[
				-0.0002867578587029129,
				0.011064552702009678,
				0.22567231953144073,
				0.9741404056549072
			],
			"scale":[
				1,
				0.9999998807907104,
				0.9999998211860657
			],
			"translation":[
				-6.7876708271796815e-06,
				0.09378191828727722,
				1.4528632164001465e-07
			]
		},
		{
			"name":"Thumb2.R",
			"rotation":[
				-0.2125691920518875,
				-0.04583650827407837,
				-0.1466086357831955,
				0.9649970531463623
			],
			"scale":[
				0.9999999403953552,
				1,
				0.9999999403953552
			],
			"translation":[
				-1.5768212051625596e-06,
				0.06008648872375488,
				-1.043081283569336e-06
			]
		},
		{
			"children":[
				14
			],
			"name":"Thumb1.R",
			"rotation":[
				0.2223535031080246,
				0.08429452031850815,
				0.288189560174942,
				0.9275776147842407
			],
			"scale":[
				0.9999999403953552,
				0.9999999403953552,
				0.9999999403953552
			],
			"translation":[
				-0.0075658815912902355,
				0.02622920274734497,
				0.0468083880841732
			]
		},
		{
			"children":[
				13,
				15
			],
			"name":"Hand.R",
			"rotation":[
				-0.04276987165212631,
				0.0052938698790967464,
				0.05729285627603531,
				0.9974268078804016
			],
			"scale":[
				1,
				1,
				0.9999999403953552
			],
			"translation":[
				2.6160530524066417e-06,
				0.28836560249328613,
				-5.289912223815918e-07
			]
		},
		{
			"children":[
				16
			],
			"name":"LowerArm.R",
			"rotation":[
				-0.030452527105808258,
				0.013049042783677578,
				0.07810351252555847,
				0.9963946342468262
			],
			"scale":[
				0.9999999403953552,
				1,
				0.9999999403953552
			],
			"translation":[
				-5.1771526159427594e-06,
				0.22194314002990723,
				2.384185791015625e-07
			]
		},
		{
			"children":[
				17
			],
			"name":"UpperArm.R",
			"rotation":[
				0.04270496591925621,
				0.07756370306015015,
				0.5291833877563477,
				0.8438751101493835
			],
			"scale":[
				1,
				0.9999997615814209,
				0.9999999403953552
			],
			"translation":[
				-6.589212944163592e-07,
				0.15541189908981323,
				3.46451997756958e-07
			]
		},
		{
			"children":[
				18
			],
			"name":"Clavicle.R",
			"rotation":[
				0.03592294827103615,
				0.02742820419371128,
				0.8076550364494324,
				0.5879206657409668
			],
			"scale":[
				0.9999999403953552,
				0.9999999403953552,
				1
			],
			"translation":[
				-0.04630942642688751,
				0.15289130806922913,
				-0.0014059016248211265
			]
		},
		{
			"children":[
				3,
				11,
				19
			],
			"name":"Spine2",
			"rotation":[
				0.13606280088424683,
				-2.315550640119568e-09,
				2.262044773715388e-08,
				0.9907002449035645
			],
			"translation":[
				9.212578788719838e-07,
				0.21008503437042236,
				1.1003157851519063e-07
			]
		},
		{
			"children":[
				20
			],
			"name":"Spine1",
			"rotation":[
				-0.2671860456466675,
				6.686973819114428e-08,
				-2.6503480299311377e-08,
				0.9636449813842773
			],
			"translation":[
				1.8375712329543603e-07,
				0.24363160133361816,
				-1.0146470685867826e-07
			]
		},
		{
			"name":"Toe.L",
			"rotation":[
				0.1822156012058258,
				1.3323688669280437e-13,
				2.7513769040865554e-08,
				0.9832586050033569
			],
			"scale":[
				1,
				0.9999999403953552,
				1
			],
			"translation":[
				5.224177357376902e-07,
				0.13868281245231628,
				-1.807579792512115e-07
			]
		},
		{
			"children":[
				22
			],
			"name":"Foot.L",
			"rotation":[
				0.5309622287750244,
				5.0411120611215665e-08,
				2.418945044269094e-08,
				0.8473954796791077
			],
			"scale":[
				1,
				1.0000054836273193,
				0.9999983310699463
			],
			"translation":[
				3.888441824528854e-06,
				0.4123149812221527,
				-3.725297688106366e-07
			]
		},
		{
			"children":[
				23
			],
			"name":"Shin.L",
			"rotation":[
				-0.08610935509204865,
				5.560914928537386e-08,
				3.8774231825300376e-08,
				0.9962856769561768
			],
			"scale":[
				1,
				1.0000001192092896,
				1.000000238418579
			],
			"translation":[
				-6.208251761563588e-07,
				0.45467889308929443,
				2.5103759071498644e-07
			]
		},
		{
			"children":[
				24
			],
			"name":"Thigh.L",
			"rotation":[
				3.524206348970438e-08,
				0.12491704523563385,
				0.9921671748161316,
				2.226950890360513e-08
			],
			"scale":[
				1,
				1.0000003576278687,
				1.0000100135803223
			],
			"translation":[
				0.12303561717271805,
				0.08833026885986328,
				-0.008232885040342808
			]
		},
		{
			"name":"Toe.R",
			"rotation":[
				0.182215616106987,
				-1.8291843192040635e-13,
				-2.751378325172027e-08,
				0.9832586050033569
			],
			"translation":[
				-5.224164283390564e-07,
				0.13868273794651031,
				6.502627911686432e-07
			]
		},
		{
			"children":[
				26
			],
			"name":"Foot.R",
			"rotation":[
				0.5309619903564453,
				2.3256227166257304e-08,
				-7.246195821153378e-08,
				0.847395658493042
			],
			"scale":[
				1,
				1.0000059604644775,
				0.9999979734420776
			],
			"translation":[
				2.6669010821933625e-06,
				0.41231486201286316,
				2.0826792024308816e-07
			]
		},
		{
			"children":[
				27
			],
			"name":"Shin.R",
			"rotation":[
				-0.08610887080430984,
				-3.852450802810381e-08,
				-2.8263785978310807e-08,
				0.9962857365608215
			],
			"scale":[
				1,
				0.9999992251396179,
				1.000000238418579
			],
			"translation":[
				3.1516710805590264e-06,
				0.4546789526939392,
				-1.7466845747549087e-08
			]
		},
		{
			"children":[
				28
			],
			"name":"Thigh.R",
			"rotation":[
				-3.972381890093857e-08,
				-0.12491690367460251,
				-0.9921672344207764,
				1.3319476188655699e-08
			],
			"scale":[
				1,
				1.0000005960464478,
				1.0000109672546387
			],
			"translation":[
				-0.1230352446436882,
				0.08833026885986328,
				-0.008232892490923405
			]
		},
		{
			"children":[
				21,
				25,
				29
			],
			"name":"Root",
			"rotation":[
				0.12015515565872192,
				1.4793210212360464e-08,
				1.7904516758093791e-09,
				0.992755115032196
			],
			"scale":[
				1,
				1,
				1.0000001192092896
			],
			"translation":[
				0,
				0.8967174291610718,
				-0.058123111724853516
			]
		},
		{
			"name":"Pole.L",
			"rotation":[
				0,
				0.7071067690849304,
				0.7071067690849304,
				0
			],
			"translation":[
				0.12303543090820312,
				0.5298030376434326,
				0.6955389976501465
			]
		},
		{
			"name":"Pole.R",
			"rotation":[
				0,
				0.7071067690849304,
				0.7071067690849304,
				0
			],
			"translation":[
				-0.12303543090820312,
				0.5298030376434326,
				0.6955389976501465
			]
		},
		{
			"mesh":0,
			"name":"farm guy.002",
			"skin":0
		},
		{
			"children":[
				33,
				0,
				1,
				30,
				31,
				32
			],
			"name":"Armature.002",
			"translation":[
				-32.404579162597656,
				0,
				-6.070779800415039
			]
		}
	],
	"materials":[
		{
			"doubleSided":true,
			"name":"Human 1.002",
			"pbrMetallicRoughness":{
				"baseColorTexture":{
					"index":0
				},
				"metallicFactor":0,
				"roughnessFactor":0.5
			}
		}
	],
	"meshes":[
		{
			"name":"Cube.152",
			"primitives":[
				{
					"attributes":{
						"POSITION":0,
						"NORMAL":1,
						"TEXCOORD_0":2,
						"JOINTS_0":3,
						"WEIGHTS_0":4
					},
					"indices":5,
					"material":0
				}
			]
		}
	],
	"textures":[
		{
			"sampler":0,
			"source":0
		}
	],
	"images":[
		{
			"bufferView":6,
			"mimeType":"image/png",
			"name":"palette_3"
		}
	],
	"skins":[
		{
			"inverseBindMatrices":6,
			"joints":[
				0,
				1,
				30,
				21,
				20,
				3,
				2,
				11,
				10,
				9,
				8,
				5,
				4,
				7,
				6,
				19,
				18,
				17,
				16,
				13,
				12,
				15,
				14,
				25,
				24,
				23,
				22,
				29,
				28,
				27,
				26,
				31,
				32
			],
			"name":"Armature.002"
		}
	],
	"accessors":[
		{
			"bufferView":0,
			"componentType":5126,
			"count":4558,
			"max":[
				-31.5914306640625,
				1.8688130378723145,
				-5.916104793548584
			],
			"min":[
				-33.21772766113281,
				-0.0041360375471413136,
				-6.2527384757995605
			],
			"type":"VEC3"
		},
		{
			"bufferView":1,
			"componentType":5126,
			"count":4558,
			"type":"VEC3"
		},
		{
			"bufferView":2,
			"componentType":5126,
			"count":4558,
			"type":"VEC2"
		},
		{
			"bufferView":3,
			"componentType":5121,
			"count":4558,
			"type":"VEC4"
		},
		{
			"bufferView":4,
			"componentType":5126,
			"count":4558,
			"type":"VEC4"
		},
		{
			"bufferView":5,
			"componentType":5123,
			"count":7146,
			"type":"SCALAR"
		},
		{
			"bufferView":7,
			"componentType":5126,
			"count":33,
			"type":"MAT4"
		}
	],
	"bufferViews":[
		{
			"buffer":0,
			"byteLength":54696,
			"byteOffset":0,
			"target":34962
		},
		{
			"buffer":0,
			"byteLength":54696,
			"byteOffset":54696,
			"target":34962
		},
		{
			"buffer":0,
			"byteLength":36464,
			"byteOffset":109392,
			"target":34962
		},
		{
			"buffer":0,
			"byteLength":18232,
			"byteOffset":145856,
			"target":34962
		},
		{
			"buffer":0,
			"byteLength":72928,
			"byteOffset":164088,
			"target":34962
		},
		{
			"buffer":0,
			"byteLength":14292,
			"byteOffset":237016,
			"target":34963
		},
		{
			"buffer":0,
			"byteLength":3949,
			"byteOffset":251308
		},
		{
			"buffer":0,
			"byteLength":2112,
			"byteOffset":255260
		}
	],
	"samplers":[
		{
			"magFilter":9729,
			"minFilter":9987
		}
	],
	"buffers":[
		{
			"byteLength":257372,
			"uri":"data:application/octet-stream;base64,"
		}
	]
}
